<?xml version="1.0" encoding="utf-8" standalone="no"?>
<!DOCTYPE svg PUBLIC "-//W3C//DTD SVG 1.1//EN"
  "http://www.w3.org/Graphics/SVG/1.1/DTD/svg11.dtd">
<svg xmlns:xlink="http://www.w3.org/1999/xlink" width="576pt" height="360pt" viewBox="0 0 576 360" xmlns="http://www.w3.org/2000/svg" version="1.1">
 <metadata>
  <rdf:RDF xmlns:dc="http://purl.org/dc/elements/1.1/" xmlns:cc="http://creativecommons.org/ns#" xmlns:rdf="http://www.w3.org/1999/02/22-rdf-syntax-ns#">
   <cc:Work>
    <dc:type rdf:resource="http://purl.org/dc/dcmitype/StillImage"/>
    <dc:date>2023-09-03T16:09:42.265849</dc:date>
    <dc:format>image/svg+xml</dc:format>
    <dc:creator>
     <cc:Agent>
      <dc:title>Matplotlib v3.7.2, https://matplotlib.org/</dc:title>
     </cc:Agent>
    </dc:creator>
   </cc:Work>
  </rdf:RDF>
 </metadata>
 <defs>
  <style type="text/css">*{stroke-linejoin: round; stroke-linecap: butt}</style>
 </defs>
 <g id="figure_1">
  <g id="patch_1">
   <path d="M 0 360 
L 576 360 
L 576 0 
L 0 0 
z
" style="fill: #ffffff"/>
  </g>
  <g id="axes_1">
   <g id="patch_2">
    <path d="M 72 320.4 
L 518.4 320.4 
L 518.4 43.2 
L 72 43.2 
z
" style="fill: #ffffff"/>
   </g>
   <g id="matplotlib.axis_1">
    <g id="xtick_1">
     <g id="line2d_1">
      <path d="M 163.120758 320.4 
L 163.120758 43.2 
" clip-path="url(#p05135146c6)" style="fill: none; stroke: #b0b0b0; stroke-width: 0.8; stroke-linecap: square"/>
     </g>
     <g id="line2d_2">
      <defs>
       <path id="ma4b1e9bcb3" d="M 0 0 
L 0 3.5 
" style="stroke: #000000; stroke-width: 0.8"/>
      </defs>
      <g>
       <use xlink:href="#ma4b1e9bcb3" x="163.120758" y="320.4" style="stroke: #000000; stroke-width: 0.8"/>
      </g>
     </g>
     <g id="text_1">
      <!-- 0.085 -->
      <g transform="translate(148.806695 334.998438) scale(0.1 -0.1)">
       <defs>
        <path id="DejaVuSans-30" d="M 2034 4250 
Q 1547 4250 1301 3770 
Q 1056 3291 1056 2328 
Q 1056 1369 1301 889 
Q 1547 409 2034 409 
Q 2525 409 2770 889 
Q 3016 1369 3016 2328 
Q 3016 3291 2770 3770 
Q 2525 4250 2034 4250 
z
M 2034 4750 
Q 2819 4750 3233 4129 
Q 3647 3509 3647 2328 
Q 3647 1150 3233 529 
Q 2819 -91 2034 -91 
Q 1250 -91 836 529 
Q 422 1150 422 2328 
Q 422 3509 836 4129 
Q 1250 4750 2034 4750 
z
" transform="scale(0.015625)"/>
        <path id="DejaVuSans-2e" d="M 684 794 
L 1344 794 
L 1344 0 
L 684 0 
L 684 794 
z
" transform="scale(0.015625)"/>
        <path id="DejaVuSans-38" d="M 2034 2216 
Q 1584 2216 1326 1975 
Q 1069 1734 1069 1313 
Q 1069 891 1326 650 
Q 1584 409 2034 409 
Q 2484 409 2743 651 
Q 3003 894 3003 1313 
Q 3003 1734 2745 1975 
Q 2488 2216 2034 2216 
z
M 1403 2484 
Q 997 2584 770 2862 
Q 544 3141 544 3541 
Q 544 4100 942 4425 
Q 1341 4750 2034 4750 
Q 2731 4750 3128 4425 
Q 3525 4100 3525 3541 
Q 3525 3141 3298 2862 
Q 3072 2584 2669 2484 
Q 3125 2378 3379 2068 
Q 3634 1759 3634 1313 
Q 3634 634 3220 271 
Q 2806 -91 2034 -91 
Q 1263 -91 848 271 
Q 434 634 434 1313 
Q 434 1759 690 2068 
Q 947 2378 1403 2484 
z
M 1172 3481 
Q 1172 3119 1398 2916 
Q 1625 2713 2034 2713 
Q 2441 2713 2670 2916 
Q 2900 3119 2900 3481 
Q 2900 3844 2670 4047 
Q 2441 4250 2034 4250 
Q 1625 4250 1398 4047 
Q 1172 3844 1172 3481 
z
" transform="scale(0.015625)"/>
        <path id="DejaVuSans-35" d="M 691 4666 
L 3169 4666 
L 3169 4134 
L 1269 4134 
L 1269 2991 
Q 1406 3038 1543 3061 
Q 1681 3084 1819 3084 
Q 2600 3084 3056 2656 
Q 3513 2228 3513 1497 
Q 3513 744 3044 326 
Q 2575 -91 1722 -91 
Q 1428 -91 1123 -41 
Q 819 9 494 109 
L 494 744 
Q 775 591 1075 516 
Q 1375 441 1709 441 
Q 2250 441 2565 725 
Q 2881 1009 2881 1497 
Q 2881 1984 2565 2268 
Q 2250 2553 1709 2553 
Q 1456 2553 1204 2497 
Q 953 2441 691 2322 
L 691 4666 
z
" transform="scale(0.015625)"/>
       </defs>
       <use xlink:href="#DejaVuSans-30"/>
       <use xlink:href="#DejaVuSans-2e" x="63.623047"/>
       <use xlink:href="#DejaVuSans-30" x="95.410156"/>
       <use xlink:href="#DejaVuSans-38" x="159.033203"/>
       <use xlink:href="#DejaVuSans-35" x="222.65625"/>
      </g>
     </g>
    </g>
    <g id="xtick_2">
     <g id="line2d_3">
      <path d="M 257.610951 320.4 
L 257.610951 43.2 
" clip-path="url(#p05135146c6)" style="fill: none; stroke: #b0b0b0; stroke-width: 0.8; stroke-linecap: square"/>
     </g>
     <g id="line2d_4">
      <g>
       <use xlink:href="#ma4b1e9bcb3" x="257.610951" y="320.4" style="stroke: #000000; stroke-width: 0.8"/>
      </g>
     </g>
     <g id="text_2">
      <!-- 0.090 -->
      <g transform="translate(243.296888 334.998438) scale(0.1 -0.1)">
       <defs>
        <path id="DejaVuSans-39" d="M 703 97 
L 703 672 
Q 941 559 1184 500 
Q 1428 441 1663 441 
Q 2288 441 2617 861 
Q 2947 1281 2994 2138 
Q 2813 1869 2534 1725 
Q 2256 1581 1919 1581 
Q 1219 1581 811 2004 
Q 403 2428 403 3163 
Q 403 3881 828 4315 
Q 1253 4750 1959 4750 
Q 2769 4750 3195 4129 
Q 3622 3509 3622 2328 
Q 3622 1225 3098 567 
Q 2575 -91 1691 -91 
Q 1453 -91 1209 -44 
Q 966 3 703 97 
z
M 1959 2075 
Q 2384 2075 2632 2365 
Q 2881 2656 2881 3163 
Q 2881 3666 2632 3958 
Q 2384 4250 1959 4250 
Q 1534 4250 1286 3958 
Q 1038 3666 1038 3163 
Q 1038 2656 1286 2365 
Q 1534 2075 1959 2075 
z
" transform="scale(0.015625)"/>
       </defs>
       <use xlink:href="#DejaVuSans-30"/>
       <use xlink:href="#DejaVuSans-2e" x="63.623047"/>
       <use xlink:href="#DejaVuSans-30" x="95.410156"/>
       <use xlink:href="#DejaVuSans-39" x="159.033203"/>
       <use xlink:href="#DejaVuSans-30" x="222.65625"/>
      </g>
     </g>
    </g>
    <g id="xtick_3">
     <g id="line2d_5">
      <path d="M 352.101144 320.4 
L 352.101144 43.2 
" clip-path="url(#p05135146c6)" style="fill: none; stroke: #b0b0b0; stroke-width: 0.8; stroke-linecap: square"/>
     </g>
     <g id="line2d_6">
      <g>
       <use xlink:href="#ma4b1e9bcb3" x="352.101144" y="320.4" style="stroke: #000000; stroke-width: 0.8"/>
      </g>
     </g>
     <g id="text_3">
      <!-- 0.095 -->
      <g transform="translate(337.787081 334.998438) scale(0.1 -0.1)">
       <use xlink:href="#DejaVuSans-30"/>
       <use xlink:href="#DejaVuSans-2e" x="63.623047"/>
       <use xlink:href="#DejaVuSans-30" x="95.410156"/>
       <use xlink:href="#DejaVuSans-39" x="159.033203"/>
       <use xlink:href="#DejaVuSans-35" x="222.65625"/>
      </g>
     </g>
    </g>
    <g id="xtick_4">
     <g id="line2d_7">
      <path d="M 446.591337 320.4 
L 446.591337 43.2 
" clip-path="url(#p05135146c6)" style="fill: none; stroke: #b0b0b0; stroke-width: 0.8; stroke-linecap: square"/>
     </g>
     <g id="line2d_8">
      <g>
       <use xlink:href="#ma4b1e9bcb3" x="446.591337" y="320.4" style="stroke: #000000; stroke-width: 0.8"/>
      </g>
     </g>
     <g id="text_4">
      <!-- 0.100 -->
      <g transform="translate(432.277274 334.998438) scale(0.1 -0.1)">
       <defs>
        <path id="DejaVuSans-31" d="M 794 531 
L 1825 531 
L 1825 4091 
L 703 3866 
L 703 4441 
L 1819 4666 
L 2450 4666 
L 2450 531 
L 3481 531 
L 3481 0 
L 794 0 
L 794 531 
z
" transform="scale(0.015625)"/>
       </defs>
       <use xlink:href="#DejaVuSans-30"/>
       <use xlink:href="#DejaVuSans-2e" x="63.623047"/>
       <use xlink:href="#DejaVuSans-31" x="95.410156"/>
       <use xlink:href="#DejaVuSans-30" x="159.033203"/>
       <use xlink:href="#DejaVuSans-30" x="222.65625"/>
      </g>
     </g>
    </g>
    <g id="text_5">
     <!-- Time (ms) -->
     <g transform="translate(270.000781 348.676562) scale(0.1 -0.1)">
      <defs>
       <path id="DejaVuSans-54" d="M -19 4666 
L 3928 4666 
L 3928 4134 
L 2272 4134 
L 2272 0 
L 1638 0 
L 1638 4134 
L -19 4134 
L -19 4666 
z
" transform="scale(0.015625)"/>
       <path id="DejaVuSans-69" d="M 603 3500 
L 1178 3500 
L 1178 0 
L 603 0 
L 603 3500 
z
M 603 4863 
L 1178 4863 
L 1178 4134 
L 603 4134 
L 603 4863 
z
" transform="scale(0.015625)"/>
       <path id="DejaVuSans-6d" d="M 3328 2828 
Q 3544 3216 3844 3400 
Q 4144 3584 4550 3584 
Q 5097 3584 5394 3201 
Q 5691 2819 5691 2113 
L 5691 0 
L 5113 0 
L 5113 2094 
Q 5113 2597 4934 2840 
Q 4756 3084 4391 3084 
Q 3944 3084 3684 2787 
Q 3425 2491 3425 1978 
L 3425 0 
L 2847 0 
L 2847 2094 
Q 2847 2600 2669 2842 
Q 2491 3084 2119 3084 
Q 1678 3084 1418 2786 
Q 1159 2488 1159 1978 
L 1159 0 
L 581 0 
L 581 3500 
L 1159 3500 
L 1159 2956 
Q 1356 3278 1631 3431 
Q 1906 3584 2284 3584 
Q 2666 3584 2933 3390 
Q 3200 3197 3328 2828 
z
" transform="scale(0.015625)"/>
       <path id="DejaVuSans-65" d="M 3597 1894 
L 3597 1613 
L 953 1613 
Q 991 1019 1311 708 
Q 1631 397 2203 397 
Q 2534 397 2845 478 
Q 3156 559 3463 722 
L 3463 178 
Q 3153 47 2828 -22 
Q 2503 -91 2169 -91 
Q 1331 -91 842 396 
Q 353 884 353 1716 
Q 353 2575 817 3079 
Q 1281 3584 2069 3584 
Q 2775 3584 3186 3129 
Q 3597 2675 3597 1894 
z
M 3022 2063 
Q 3016 2534 2758 2815 
Q 2500 3097 2075 3097 
Q 1594 3097 1305 2825 
Q 1016 2553 972 2059 
L 3022 2063 
z
" transform="scale(0.015625)"/>
       <path id="DejaVuSans-20" transform="scale(0.015625)"/>
       <path id="DejaVuSans-28" d="M 1984 4856 
Q 1566 4138 1362 3434 
Q 1159 2731 1159 2009 
Q 1159 1288 1364 580 
Q 1569 -128 1984 -844 
L 1484 -844 
Q 1016 -109 783 600 
Q 550 1309 550 2009 
Q 550 2706 781 3412 
Q 1013 4119 1484 4856 
L 1984 4856 
z
" transform="scale(0.015625)"/>
       <path id="DejaVuSans-73" d="M 2834 3397 
L 2834 2853 
Q 2591 2978 2328 3040 
Q 2066 3103 1784 3103 
Q 1356 3103 1142 2972 
Q 928 2841 928 2578 
Q 928 2378 1081 2264 
Q 1234 2150 1697 2047 
L 1894 2003 
Q 2506 1872 2764 1633 
Q 3022 1394 3022 966 
Q 3022 478 2636 193 
Q 2250 -91 1575 -91 
Q 1294 -91 989 -36 
Q 684 19 347 128 
L 347 722 
Q 666 556 975 473 
Q 1284 391 1588 391 
Q 1994 391 2212 530 
Q 2431 669 2431 922 
Q 2431 1156 2273 1281 
Q 2116 1406 1581 1522 
L 1381 1569 
Q 847 1681 609 1914 
Q 372 2147 372 2553 
Q 372 3047 722 3315 
Q 1072 3584 1716 3584 
Q 2034 3584 2315 3537 
Q 2597 3491 2834 3397 
z
" transform="scale(0.015625)"/>
       <path id="DejaVuSans-29" d="M 513 4856 
L 1013 4856 
Q 1481 4119 1714 3412 
Q 1947 2706 1947 2009 
Q 1947 1309 1714 600 
Q 1481 -109 1013 -844 
L 513 -844 
Q 928 -128 1133 580 
Q 1338 1288 1338 2009 
Q 1338 2731 1133 3434 
Q 928 4138 513 4856 
z
" transform="scale(0.015625)"/>
      </defs>
      <use xlink:href="#DejaVuSans-54"/>
      <use xlink:href="#DejaVuSans-69" x="57.958984"/>
      <use xlink:href="#DejaVuSans-6d" x="85.742188"/>
      <use xlink:href="#DejaVuSans-65" x="183.154297"/>
      <use xlink:href="#DejaVuSans-20" x="244.677734"/>
      <use xlink:href="#DejaVuSans-28" x="276.464844"/>
      <use xlink:href="#DejaVuSans-6d" x="315.478516"/>
      <use xlink:href="#DejaVuSans-73" x="412.890625"/>
      <use xlink:href="#DejaVuSans-29" x="464.990234"/>
     </g>
    </g>
   </g>
   <g id="matplotlib.axis_2">
    <g id="ytick_1">
     <g id="line2d_9">
      <path d="M 72 320.4 
L 518.4 320.4 
" clip-path="url(#p05135146c6)" style="fill: none; stroke: #b0b0b0; stroke-width: 0.8; stroke-linecap: square"/>
     </g>
     <g id="line2d_10">
      <defs>
       <path id="m610b577f6d" d="M 0 0 
L -3.5 0 
" style="stroke: #000000; stroke-width: 0.8"/>
      </defs>
      <g>
       <use xlink:href="#m610b577f6d" x="72" y="320.4" style="stroke: #000000; stroke-width: 0.8"/>
      </g>
     </g>
     <g id="text_6">
      <!-- 0 -->
      <g transform="translate(58.6375 324.199219) scale(0.1 -0.1)">
       <use xlink:href="#DejaVuSans-30"/>
      </g>
     </g>
    </g>
    <g id="ytick_2">
     <g id="line2d_11">
      <path d="M 72 286.812214 
L 518.4 286.812214 
" clip-path="url(#p05135146c6)" style="fill: none; stroke: #b0b0b0; stroke-width: 0.8; stroke-linecap: square"/>
     </g>
     <g id="line2d_12">
      <g>
       <use xlink:href="#m610b577f6d" x="72" y="286.812214" style="stroke: #000000; stroke-width: 0.8"/>
      </g>
     </g>
     <g id="text_7">
      <!-- 100 -->
      <g transform="translate(45.9125 290.611432) scale(0.1 -0.1)">
       <use xlink:href="#DejaVuSans-31"/>
       <use xlink:href="#DejaVuSans-30" x="63.623047"/>
       <use xlink:href="#DejaVuSans-30" x="127.246094"/>
      </g>
     </g>
    </g>
    <g id="ytick_3">
     <g id="line2d_13">
      <path d="M 72 253.224427 
L 518.4 253.224427 
" clip-path="url(#p05135146c6)" style="fill: none; stroke: #b0b0b0; stroke-width: 0.8; stroke-linecap: square"/>
     </g>
     <g id="line2d_14">
      <g>
       <use xlink:href="#m610b577f6d" x="72" y="253.224427" style="stroke: #000000; stroke-width: 0.8"/>
      </g>
     </g>
     <g id="text_8">
      <!-- 200 -->
      <g transform="translate(45.9125 257.023646) scale(0.1 -0.1)">
       <defs>
        <path id="DejaVuSans-32" d="M 1228 531 
L 3431 531 
L 3431 0 
L 469 0 
L 469 531 
Q 828 903 1448 1529 
Q 2069 2156 2228 2338 
Q 2531 2678 2651 2914 
Q 2772 3150 2772 3378 
Q 2772 3750 2511 3984 
Q 2250 4219 1831 4219 
Q 1534 4219 1204 4116 
Q 875 4013 500 3803 
L 500 4441 
Q 881 4594 1212 4672 
Q 1544 4750 1819 4750 
Q 2544 4750 2975 4387 
Q 3406 4025 3406 3419 
Q 3406 3131 3298 2873 
Q 3191 2616 2906 2266 
Q 2828 2175 2409 1742 
Q 1991 1309 1228 531 
z
" transform="scale(0.015625)"/>
       </defs>
       <use xlink:href="#DejaVuSans-32"/>
       <use xlink:href="#DejaVuSans-30" x="63.623047"/>
       <use xlink:href="#DejaVuSans-30" x="127.246094"/>
      </g>
     </g>
    </g>
    <g id="ytick_4">
     <g id="line2d_15">
      <path d="M 72 219.636641 
L 518.4 219.636641 
" clip-path="url(#p05135146c6)" style="fill: none; stroke: #b0b0b0; stroke-width: 0.8; stroke-linecap: square"/>
     </g>
     <g id="line2d_16">
      <g>
       <use xlink:href="#m610b577f6d" x="72" y="219.636641" style="stroke: #000000; stroke-width: 0.8"/>
      </g>
     </g>
     <g id="text_9">
      <!-- 300 -->
      <g transform="translate(45.9125 223.43586) scale(0.1 -0.1)">
       <defs>
        <path id="DejaVuSans-33" d="M 2597 2516 
Q 3050 2419 3304 2112 
Q 3559 1806 3559 1356 
Q 3559 666 3084 287 
Q 2609 -91 1734 -91 
Q 1441 -91 1130 -33 
Q 819 25 488 141 
L 488 750 
Q 750 597 1062 519 
Q 1375 441 1716 441 
Q 2309 441 2620 675 
Q 2931 909 2931 1356 
Q 2931 1769 2642 2001 
Q 2353 2234 1838 2234 
L 1294 2234 
L 1294 2753 
L 1863 2753 
Q 2328 2753 2575 2939 
Q 2822 3125 2822 3475 
Q 2822 3834 2567 4026 
Q 2313 4219 1838 4219 
Q 1578 4219 1281 4162 
Q 984 4106 628 3988 
L 628 4550 
Q 988 4650 1302 4700 
Q 1616 4750 1894 4750 
Q 2613 4750 3031 4423 
Q 3450 4097 3450 3541 
Q 3450 3153 3228 2886 
Q 3006 2619 2597 2516 
z
" transform="scale(0.015625)"/>
       </defs>
       <use xlink:href="#DejaVuSans-33"/>
       <use xlink:href="#DejaVuSans-30" x="63.623047"/>
       <use xlink:href="#DejaVuSans-30" x="127.246094"/>
      </g>
     </g>
    </g>
    <g id="ytick_5">
     <g id="line2d_17">
      <path d="M 72 186.048855 
L 518.4 186.048855 
" clip-path="url(#p05135146c6)" style="fill: none; stroke: #b0b0b0; stroke-width: 0.8; stroke-linecap: square"/>
     </g>
     <g id="line2d_18">
      <g>
       <use xlink:href="#m610b577f6d" x="72" y="186.048855" style="stroke: #000000; stroke-width: 0.8"/>
      </g>
     </g>
     <g id="text_10">
      <!-- 400 -->
      <g transform="translate(45.9125 189.848074) scale(0.1 -0.1)">
       <defs>
        <path id="DejaVuSans-34" d="M 2419 4116 
L 825 1625 
L 2419 1625 
L 2419 4116 
z
M 2253 4666 
L 3047 4666 
L 3047 1625 
L 3713 1625 
L 3713 1100 
L 3047 1100 
L 3047 0 
L 2419 0 
L 2419 1100 
L 313 1100 
L 313 1709 
L 2253 4666 
z
" transform="scale(0.015625)"/>
       </defs>
       <use xlink:href="#DejaVuSans-34"/>
       <use xlink:href="#DejaVuSans-30" x="63.623047"/>
       <use xlink:href="#DejaVuSans-30" x="127.246094"/>
      </g>
     </g>
    </g>
    <g id="ytick_6">
     <g id="line2d_19">
      <path d="M 72 152.461069 
L 518.4 152.461069 
" clip-path="url(#p05135146c6)" style="fill: none; stroke: #b0b0b0; stroke-width: 0.8; stroke-linecap: square"/>
     </g>
     <g id="line2d_20">
      <g>
       <use xlink:href="#m610b577f6d" x="72" y="152.461069" style="stroke: #000000; stroke-width: 0.8"/>
      </g>
     </g>
     <g id="text_11">
      <!-- 500 -->
      <g transform="translate(45.9125 156.260287) scale(0.1 -0.1)">
       <use xlink:href="#DejaVuSans-35"/>
       <use xlink:href="#DejaVuSans-30" x="63.623047"/>
       <use xlink:href="#DejaVuSans-30" x="127.246094"/>
      </g>
     </g>
    </g>
    <g id="ytick_7">
     <g id="line2d_21">
      <path d="M 72 118.873282 
L 518.4 118.873282 
" clip-path="url(#p05135146c6)" style="fill: none; stroke: #b0b0b0; stroke-width: 0.8; stroke-linecap: square"/>
     </g>
     <g id="line2d_22">
      <g>
       <use xlink:href="#m610b577f6d" x="72" y="118.873282" style="stroke: #000000; stroke-width: 0.8"/>
      </g>
     </g>
     <g id="text_12">
      <!-- 600 -->
      <g transform="translate(45.9125 122.672501) scale(0.1 -0.1)">
       <defs>
        <path id="DejaVuSans-36" d="M 2113 2584 
Q 1688 2584 1439 2293 
Q 1191 2003 1191 1497 
Q 1191 994 1439 701 
Q 1688 409 2113 409 
Q 2538 409 2786 701 
Q 3034 994 3034 1497 
Q 3034 2003 2786 2293 
Q 2538 2584 2113 2584 
z
M 3366 4563 
L 3366 3988 
Q 3128 4100 2886 4159 
Q 2644 4219 2406 4219 
Q 1781 4219 1451 3797 
Q 1122 3375 1075 2522 
Q 1259 2794 1537 2939 
Q 1816 3084 2150 3084 
Q 2853 3084 3261 2657 
Q 3669 2231 3669 1497 
Q 3669 778 3244 343 
Q 2819 -91 2113 -91 
Q 1303 -91 875 529 
Q 447 1150 447 2328 
Q 447 3434 972 4092 
Q 1497 4750 2381 4750 
Q 2619 4750 2861 4703 
Q 3103 4656 3366 4563 
z
" transform="scale(0.015625)"/>
       </defs>
       <use xlink:href="#DejaVuSans-36"/>
       <use xlink:href="#DejaVuSans-30" x="63.623047"/>
       <use xlink:href="#DejaVuSans-30" x="127.246094"/>
      </g>
     </g>
    </g>
    <g id="ytick_8">
     <g id="line2d_23">
      <path d="M 72 85.285496 
L 518.4 85.285496 
" clip-path="url(#p05135146c6)" style="fill: none; stroke: #b0b0b0; stroke-width: 0.8; stroke-linecap: square"/>
     </g>
     <g id="line2d_24">
      <g>
       <use xlink:href="#m610b577f6d" x="72" y="85.285496" style="stroke: #000000; stroke-width: 0.8"/>
      </g>
     </g>
     <g id="text_13">
      <!-- 700 -->
      <g transform="translate(45.9125 89.084715) scale(0.1 -0.1)">
       <defs>
        <path id="DejaVuSans-37" d="M 525 4666 
L 3525 4666 
L 3525 4397 
L 1831 0 
L 1172 0 
L 2766 4134 
L 525 4134 
L 525 4666 
z
" transform="scale(0.015625)"/>
       </defs>
       <use xlink:href="#DejaVuSans-37"/>
       <use xlink:href="#DejaVuSans-30" x="63.623047"/>
       <use xlink:href="#DejaVuSans-30" x="127.246094"/>
      </g>
     </g>
    </g>
    <g id="ytick_9">
     <g id="line2d_25">
      <path d="M 72 51.69771 
L 518.4 51.69771 
" clip-path="url(#p05135146c6)" style="fill: none; stroke: #b0b0b0; stroke-width: 0.8; stroke-linecap: square"/>
     </g>
     <g id="line2d_26">
      <g>
       <use xlink:href="#m610b577f6d" x="72" y="51.69771" style="stroke: #000000; stroke-width: 0.8"/>
      </g>
     </g>
     <g id="text_14">
      <!-- 800 -->
      <g transform="translate(45.9125 55.496929) scale(0.1 -0.1)">
       <use xlink:href="#DejaVuSans-38"/>
       <use xlink:href="#DejaVuSans-30" x="63.623047"/>
       <use xlink:href="#DejaVuSans-30" x="127.246094"/>
      </g>
     </g>
    </g>
    <g id="text_15">
     <!-- Number of measurements -->
     <g transform="translate(39.832812 247.367969) rotate(-90) scale(0.1 -0.1)">
      <defs>
       <path id="DejaVuSans-4e" d="M 628 4666 
L 1478 4666 
L 3547 763 
L 3547 4666 
L 4159 4666 
L 4159 0 
L 3309 0 
L 1241 3903 
L 1241 0 
L 628 0 
L 628 4666 
z
" transform="scale(0.015625)"/>
       <path id="DejaVuSans-75" d="M 544 1381 
L 544 3500 
L 1119 3500 
L 1119 1403 
Q 1119 906 1312 657 
Q 1506 409 1894 409 
Q 2359 409 2629 706 
Q 2900 1003 2900 1516 
L 2900 3500 
L 3475 3500 
L 3475 0 
L 2900 0 
L 2900 538 
Q 2691 219 2414 64 
Q 2138 -91 1772 -91 
Q 1169 -91 856 284 
Q 544 659 544 1381 
z
M 1991 3584 
L 1991 3584 
z
" transform="scale(0.015625)"/>
       <path id="DejaVuSans-62" d="M 3116 1747 
Q 3116 2381 2855 2742 
Q 2594 3103 2138 3103 
Q 1681 3103 1420 2742 
Q 1159 2381 1159 1747 
Q 1159 1113 1420 752 
Q 1681 391 2138 391 
Q 2594 391 2855 752 
Q 3116 1113 3116 1747 
z
M 1159 2969 
Q 1341 3281 1617 3432 
Q 1894 3584 2278 3584 
Q 2916 3584 3314 3078 
Q 3713 2572 3713 1747 
Q 3713 922 3314 415 
Q 2916 -91 2278 -91 
Q 1894 -91 1617 61 
Q 1341 213 1159 525 
L 1159 0 
L 581 0 
L 581 4863 
L 1159 4863 
L 1159 2969 
z
" transform="scale(0.015625)"/>
       <path id="DejaVuSans-72" d="M 2631 2963 
Q 2534 3019 2420 3045 
Q 2306 3072 2169 3072 
Q 1681 3072 1420 2755 
Q 1159 2438 1159 1844 
L 1159 0 
L 581 0 
L 581 3500 
L 1159 3500 
L 1159 2956 
Q 1341 3275 1631 3429 
Q 1922 3584 2338 3584 
Q 2397 3584 2469 3576 
Q 2541 3569 2628 3553 
L 2631 2963 
z
" transform="scale(0.015625)"/>
       <path id="DejaVuSans-6f" d="M 1959 3097 
Q 1497 3097 1228 2736 
Q 959 2375 959 1747 
Q 959 1119 1226 758 
Q 1494 397 1959 397 
Q 2419 397 2687 759 
Q 2956 1122 2956 1747 
Q 2956 2369 2687 2733 
Q 2419 3097 1959 3097 
z
M 1959 3584 
Q 2709 3584 3137 3096 
Q 3566 2609 3566 1747 
Q 3566 888 3137 398 
Q 2709 -91 1959 -91 
Q 1206 -91 779 398 
Q 353 888 353 1747 
Q 353 2609 779 3096 
Q 1206 3584 1959 3584 
z
" transform="scale(0.015625)"/>
       <path id="DejaVuSans-66" d="M 2375 4863 
L 2375 4384 
L 1825 4384 
Q 1516 4384 1395 4259 
Q 1275 4134 1275 3809 
L 1275 3500 
L 2222 3500 
L 2222 3053 
L 1275 3053 
L 1275 0 
L 697 0 
L 697 3053 
L 147 3053 
L 147 3500 
L 697 3500 
L 697 3744 
Q 697 4328 969 4595 
Q 1241 4863 1831 4863 
L 2375 4863 
z
" transform="scale(0.015625)"/>
       <path id="DejaVuSans-61" d="M 2194 1759 
Q 1497 1759 1228 1600 
Q 959 1441 959 1056 
Q 959 750 1161 570 
Q 1363 391 1709 391 
Q 2188 391 2477 730 
Q 2766 1069 2766 1631 
L 2766 1759 
L 2194 1759 
z
M 3341 1997 
L 3341 0 
L 2766 0 
L 2766 531 
Q 2569 213 2275 61 
Q 1981 -91 1556 -91 
Q 1019 -91 701 211 
Q 384 513 384 1019 
Q 384 1609 779 1909 
Q 1175 2209 1959 2209 
L 2766 2209 
L 2766 2266 
Q 2766 2663 2505 2880 
Q 2244 3097 1772 3097 
Q 1472 3097 1187 3025 
Q 903 2953 641 2809 
L 641 3341 
Q 956 3463 1253 3523 
Q 1550 3584 1831 3584 
Q 2591 3584 2966 3190 
Q 3341 2797 3341 1997 
z
" transform="scale(0.015625)"/>
       <path id="DejaVuSans-6e" d="M 3513 2113 
L 3513 0 
L 2938 0 
L 2938 2094 
Q 2938 2591 2744 2837 
Q 2550 3084 2163 3084 
Q 1697 3084 1428 2787 
Q 1159 2491 1159 1978 
L 1159 0 
L 581 0 
L 581 3500 
L 1159 3500 
L 1159 2956 
Q 1366 3272 1645 3428 
Q 1925 3584 2291 3584 
Q 2894 3584 3203 3211 
Q 3513 2838 3513 2113 
z
" transform="scale(0.015625)"/>
       <path id="DejaVuSans-74" d="M 1172 4494 
L 1172 3500 
L 2356 3500 
L 2356 3053 
L 1172 3053 
L 1172 1153 
Q 1172 725 1289 603 
Q 1406 481 1766 481 
L 2356 481 
L 2356 0 
L 1766 0 
Q 1100 0 847 248 
Q 594 497 594 1153 
L 594 3053 
L 172 3053 
L 172 3500 
L 594 3500 
L 594 4494 
L 1172 4494 
z
" transform="scale(0.015625)"/>
      </defs>
      <use xlink:href="#DejaVuSans-4e"/>
      <use xlink:href="#DejaVuSans-75" x="74.804688"/>
      <use xlink:href="#DejaVuSans-6d" x="138.183594"/>
      <use xlink:href="#DejaVuSans-62" x="235.595703"/>
      <use xlink:href="#DejaVuSans-65" x="299.072266"/>
      <use xlink:href="#DejaVuSans-72" x="360.595703"/>
      <use xlink:href="#DejaVuSans-20" x="401.708984"/>
      <use xlink:href="#DejaVuSans-6f" x="433.496094"/>
      <use xlink:href="#DejaVuSans-66" x="494.677734"/>
      <use xlink:href="#DejaVuSans-20" x="529.882812"/>
      <use xlink:href="#DejaVuSans-6d" x="561.669922"/>
      <use xlink:href="#DejaVuSans-65" x="659.082031"/>
      <use xlink:href="#DejaVuSans-61" x="720.605469"/>
      <use xlink:href="#DejaVuSans-73" x="781.884766"/>
      <use xlink:href="#DejaVuSans-75" x="833.984375"/>
      <use xlink:href="#DejaVuSans-72" x="897.363281"/>
      <use xlink:href="#DejaVuSans-65" x="936.226562"/>
      <use xlink:href="#DejaVuSans-6d" x="997.75"/>
      <use xlink:href="#DejaVuSans-65" x="1095.162109"/>
      <use xlink:href="#DejaVuSans-6e" x="1156.685547"/>
      <use xlink:href="#DejaVuSans-74" x="1220.064453"/>
      <use xlink:href="#DejaVuSans-73" x="1259.273438"/>
     </g>
    </g>
   </g>
   <g id="patch_3">
    <path d="M 92.290909 320.4 
L 92.290909 114.842748 
L 96.390083 114.842748 
L 96.390083 176.644275 
L 100.489256 176.644275 
L 100.489256 56.4 
L 104.58843 56.4 
L 104.58843 154.812214 
L 108.687603 154.812214 
L 108.687603 144.064122 
L 112.786777 144.064122 
L 112.786777 180.338931 
L 116.88595 180.338931 
L 116.88595 237.10229 
L 120.985124 237.10229 
L 120.985124 238.109924 
L 125.084298 238.109924 
L 125.084298 273.377099 
L 129.183471 273.377099 
L 129.183471 282.781679 
L 133.282645 282.781679 
L 133.282645 285.80458 
L 137.381818 285.80458 
L 137.381818 298.232061 
L 141.480992 298.232061 
L 141.480992 301.926718 
L 145.580165 301.926718 
L 145.580165 307.636641 
L 149.679339 307.636641 
L 149.679339 313.346565 
L 153.778512 313.346565 
L 153.778512 310.323664 
L 157.877686 310.323664 
L 157.877686 316.033588 
L 161.97686 316.033588 
L 161.97686 315.361832 
L 166.076033 315.361832 
L 166.076033 313.346565 
L 170.175207 313.346565 
L 170.175207 316.369466 
L 174.27438 316.369466 
L 174.27438 248.858015 
L 178.373554 248.858015 
L 178.373554 129.957252 
L 182.472727 129.957252 
L 182.472727 177.651908 
L 186.571901 177.651908 
L 186.571901 154.140458 
L 190.671074 154.140458 
L 190.671074 202.842748 
L 194.770248 202.842748 
L 194.770248 246.170992 
L 198.869421 246.170992 
L 198.869421 248.522137 
L 202.968595 248.522137 
L 202.968595 274.384733 
L 207.067769 274.384733 
L 207.067769 265.316031 
L 211.166942 265.316031 
L 211.166942 246.842748 
L 215.266116 246.842748 
L 215.266116 250.537405 
L 219.365289 250.537405 
L 219.365289 256.247328 
L 223.464463 256.247328 
L 223.464463 261.957252 
L 227.563636 261.957252 
L 227.563636 271.361832 
L 231.66281 271.361832 
L 231.66281 284.125191 
L 235.761983 284.125191 
L 235.761983 289.499237 
L 239.861157 289.499237 
L 239.861157 299.91145 
L 243.960331 299.91145 
L 243.960331 301.926718 
L 248.059504 301.926718 
L 248.059504 311.331298 
L 252.158678 311.331298 
L 252.158678 312.003053 
L 260.357025 312.003053 
L 260.357025 310.99542 
L 264.456198 310.99542 
L 264.456198 314.690076 
L 268.555372 314.690076 
L 268.555372 316.705344 
L 272.654545 316.705344 
L 272.654545 317.041221 
L 276.753719 317.041221 
L 276.753719 314.018321 
L 280.852893 314.018321 
L 280.852893 312.338931 
L 284.952066 312.338931 
L 284.952066 312.003053 
L 289.05124 312.003053 
L 289.05124 306.29313 
L 293.150413 306.29313 
L 293.150413 300.919084 
L 297.249587 300.919084 
L 297.249587 303.941985 
L 301.34876 303.941985 
L 301.34876 308.308397 
L 305.447934 308.308397 
L 305.447934 304.949618 
L 309.547107 304.949618 
L 309.547107 304.61374 
L 313.646281 304.61374 
L 313.646281 305.957252 
L 317.745455 305.957252 
L 317.745455 313.346565 
L 321.844628 313.346565 
L 321.844628 313.010687 
L 325.943802 313.010687 
L 325.943802 315.025954 
L 334.142149 315.025954 
L 334.142149 314.690076 
L 338.241322 314.690076 
L 338.241322 315.025954 
L 342.340496 315.025954 
L 342.340496 317.041221 
L 346.439669 317.041221 
L 346.439669 318.048855 
L 350.538843 318.048855 
L 350.538843 317.041221 
L 354.638017 317.041221 
L 354.638017 318.384733 
L 358.73719 318.384733 
L 358.73719 317.041221 
L 362.836364 317.041221 
L 362.836364 316.705344 
L 366.935537 316.705344 
L 366.935537 317.377099 
L 371.034711 317.377099 
L 371.034711 319.392366 
L 375.133884 319.392366 
L 375.133884 318.720611 
L 379.233058 318.720611 
L 379.233058 317.377099 
L 383.332231 317.377099 
L 383.332231 317.712977 
L 387.431405 317.712977 
L 387.431405 318.384733 
L 391.530579 318.384733 
L 391.530579 317.712977 
L 395.629752 317.712977 
L 395.629752 318.048855 
L 399.728926 318.048855 
L 399.728926 317.377099 
L 403.828099 317.377099 
L 403.828099 318.048855 
L 407.927273 318.048855 
L 407.927273 317.377099 
L 412.026446 317.377099 
L 412.026446 318.720611 
L 416.12562 318.720611 
L 416.12562 319.056489 
L 420.224793 319.056489 
L 420.224793 318.384733 
L 428.42314 318.384733 
L 428.42314 318.720611 
L 432.522314 318.720611 
L 432.522314 317.041221 
L 436.621488 317.041221 
L 436.621488 317.377099 
L 440.720661 317.377099 
L 440.720661 319.056489 
L 444.819835 319.056489 
L 444.819835 317.712977 
L 448.919008 317.712977 
L 448.919008 318.384733 
L 457.117355 318.384733 
L 457.117355 317.712977 
L 461.216529 317.712977 
L 461.216529 316.033588 
L 465.315702 316.033588 
L 465.315702 317.041221 
L 469.414876 317.041221 
L 469.414876 318.048855 
L 473.51405 318.048855 
L 473.51405 310.323664 
L 477.613223 310.323664 
L 477.613223 311.667176 
L 481.712397 311.667176 
L 481.712397 310.99542 
L 485.81157 310.99542 
L 485.81157 306.629008 
L 489.910744 306.629008 
L 489.910744 308.980153 
L 494.009917 308.980153 
L 494.009917 312.674809 
L 498.109091 312.674809 
L 498.109091 320.4 
L 498.109091 320.4 
" clip-path="url(#p05135146c6)" style="fill: none; stroke: #1f77b4; stroke-width: 2; stroke-linejoin: miter"/>
   </g>
   <g id="line2d_27">
    <path d="M 176.854307 320.4 
L 176.854307 43.2 
" clip-path="url(#p05135146c6)" style="fill: none; stroke-dasharray: 2,3.3; stroke-dashoffset: 0; stroke: #1f77b4; stroke-width: 2"/>
   </g>
   <g id="patch_4">
    <path d="M 92.290909 320.4 
L 92.290909 255.239695 
L 96.390083 255.239695 
L 96.390083 96.033588 
L 100.489256 96.033588 
L 100.489256 132.644275 
L 104.58843 132.644275 
L 104.58843 95.025954 
L 108.687603 95.025954 
L 108.687603 133.651908 
L 112.786777 133.651908 
L 112.786777 182.018321 
L 116.88595 182.018321 
L 116.88595 207.545038 
L 120.985124 207.545038 
L 120.985124 252.88855 
L 125.084298 252.88855 
L 125.084298 269.682443 
L 129.183471 269.682443 
L 129.183471 286.140458 
L 133.282645 286.140458 
L 133.282645 296.216794 
L 137.381818 296.216794 
L 137.381818 294.201527 
L 141.480992 294.201527 
L 141.480992 303.270229 
L 145.580165 303.270229 
L 145.580165 304.61374 
L 149.679339 304.61374 
L 149.679339 306.629008 
L 153.778512 306.629008 
L 153.778512 309.987786 
L 157.877686 309.987786 
L 157.877686 314.354198 
L 161.97686 314.354198 
L 161.97686 315.025954 
L 166.076033 315.025954 
L 166.076033 316.705344 
L 170.175207 316.705344 
L 170.175207 314.690076 
L 174.27438 314.690076 
L 174.27438 305.621374 
L 178.373554 305.621374 
L 178.373554 213.254962 
L 182.472727 213.254962 
L 182.472727 141.041221 
L 186.571901 141.041221 
L 186.571901 151.117557 
L 194.770248 151.117557 
L 194.770248 196.461069 
L 198.869421 196.461069 
L 198.869421 238.445802 
L 202.968595 238.445802 
L 202.968595 248.522137 
L 207.067769 248.522137 
L 207.067769 262.29313 
L 211.166942 262.29313 
L 211.166942 264.980153 
L 215.266116 264.980153 
L 215.266116 233.407634 
L 219.365289 233.407634 
L 219.365289 249.193893 
L 223.464463 249.193893 
L 223.464463 267.331298 
L 231.66281 267.331298 
L 231.66281 284.461069 
L 235.761983 284.461069 
L 235.761983 292.18626 
L 239.861157 292.18626 
L 239.861157 299.91145 
L 243.960331 299.91145 
L 243.960331 308.644275 
L 248.059504 308.644275 
L 248.059504 310.99542 
L 252.158678 310.99542 
L 252.158678 313.346565 
L 256.257851 313.346565 
L 256.257851 314.690076 
L 260.357025 314.690076 
L 260.357025 312.003053 
L 264.456198 312.003053 
L 264.456198 314.354198 
L 268.555372 314.354198 
L 268.555372 311.667176 
L 272.654545 311.667176 
L 272.654545 307.972519 
L 276.753719 307.972519 
L 276.753719 305.957252 
L 280.852893 305.957252 
L 280.852893 299.91145 
L 284.952066 299.91145 
L 284.952066 298.232061 
L 289.05124 298.232061 
L 289.05124 304.61374 
L 293.150413 304.61374 
L 293.150413 306.29313 
L 297.249587 306.29313 
L 297.249587 307.636641 
L 305.447934 307.636641 
L 305.447934 309.316031 
L 309.547107 309.316031 
L 309.547107 313.682443 
L 313.646281 313.682443 
L 313.646281 314.354198 
L 317.745455 314.354198 
L 317.745455 314.690076 
L 321.844628 314.690076 
L 321.844628 313.682443 
L 325.943802 313.682443 
L 325.943802 315.361832 
L 330.042975 315.361832 
L 330.042975 313.682443 
L 334.142149 313.682443 
L 334.142149 316.033588 
L 338.241322 316.033588 
L 338.241322 315.69771 
L 342.340496 315.69771 
L 342.340496 316.369466 
L 346.439669 316.369466 
L 346.439669 317.377099 
L 350.538843 317.377099 
L 350.538843 316.369466 
L 354.638017 316.369466 
L 354.638017 317.377099 
L 362.836364 317.377099 
L 362.836364 318.048855 
L 366.935537 318.048855 
L 366.935537 317.377099 
L 371.034711 317.377099 
L 371.034711 318.384733 
L 379.233058 318.384733 
L 379.233058 316.369466 
L 383.332231 316.369466 
L 383.332231 319.056489 
L 387.431405 319.056489 
L 387.431405 317.041221 
L 391.530579 317.041221 
L 391.530579 319.056489 
L 395.629752 319.056489 
L 395.629752 317.041221 
L 399.728926 317.041221 
L 399.728926 317.377099 
L 403.828099 317.377099 
L 403.828099 318.384733 
L 407.927273 318.384733 
L 407.927273 318.048855 
L 412.026446 318.048855 
L 412.026446 316.369466 
L 416.12562 316.369466 
L 416.12562 318.048855 
L 420.224793 318.048855 
L 420.224793 317.377099 
L 424.323967 317.377099 
L 424.323967 318.384733 
L 428.42314 318.384733 
L 428.42314 319.392366 
L 436.621488 319.392366 
L 436.621488 320.064122 
L 444.819835 320.064122 
L 444.819835 318.720611 
L 448.919008 318.720611 
L 448.919008 319.728244 
L 453.018182 319.728244 
L 453.018182 318.048855 
L 457.117355 318.048855 
L 457.117355 318.720611 
L 465.315702 318.720611 
L 465.315702 317.041221 
L 473.51405 317.041221 
L 473.51405 316.369466 
L 477.613223 316.369466 
L 477.613223 314.690076 
L 481.712397 314.690076 
L 481.712397 307.972519 
L 485.81157 307.972519 
L 485.81157 306.629008 
L 489.910744 306.629008 
L 489.910744 304.949618 
L 494.009917 304.949618 
L 494.009917 307.636641 
L 498.109091 307.636641 
L 498.109091 320.4 
L 498.109091 320.4 
" clip-path="url(#p05135146c6)" style="fill: none; stroke: #ff7f0e; stroke-width: 2; stroke-linejoin: miter"/>
   </g>
   <g id="line2d_28">
    <path d="M 179.737765 320.4 
L 179.737765 43.2 
" clip-path="url(#p05135146c6)" style="fill: none; stroke-dasharray: 2,3.3; stroke-dashoffset: 0; stroke: #ff7f0e; stroke-width: 2"/>
   </g>
   <g id="patch_5">
    <path d="M 72 320.4 
L 72 43.2 
" style="fill: none; stroke: #000000; stroke-width: 0.8; stroke-linejoin: miter; stroke-linecap: square"/>
   </g>
   <g id="patch_6">
    <path d="M 518.4 320.4 
L 518.4 43.2 
" style="fill: none; stroke: #000000; stroke-width: 0.8; stroke-linejoin: miter; stroke-linecap: square"/>
   </g>
   <g id="patch_7">
    <path d="M 72 320.4 
L 518.4 320.4 
" style="fill: none; stroke: #000000; stroke-width: 0.8; stroke-linejoin: miter; stroke-linecap: square"/>
   </g>
   <g id="patch_8">
    <path d="M 72 43.2 
L 518.4 43.2 
" style="fill: none; stroke: #000000; stroke-width: 0.8; stroke-linejoin: miter; stroke-linecap: square"/>
   </g>
   <g id="text_16">
    <!-- ClientHello Extensions -->
    <g transform="translate(228.133125 37.2) scale(0.12 -0.12)">
     <defs>
      <path id="DejaVuSans-43" d="M 4122 4306 
L 4122 3641 
Q 3803 3938 3442 4084 
Q 3081 4231 2675 4231 
Q 1875 4231 1450 3742 
Q 1025 3253 1025 2328 
Q 1025 1406 1450 917 
Q 1875 428 2675 428 
Q 3081 428 3442 575 
Q 3803 722 4122 1019 
L 4122 359 
Q 3791 134 3420 21 
Q 3050 -91 2638 -91 
Q 1578 -91 968 557 
Q 359 1206 359 2328 
Q 359 3453 968 4101 
Q 1578 4750 2638 4750 
Q 3056 4750 3426 4639 
Q 3797 4528 4122 4306 
z
" transform="scale(0.015625)"/>
      <path id="DejaVuSans-6c" d="M 603 4863 
L 1178 4863 
L 1178 0 
L 603 0 
L 603 4863 
z
" transform="scale(0.015625)"/>
      <path id="DejaVuSans-48" d="M 628 4666 
L 1259 4666 
L 1259 2753 
L 3553 2753 
L 3553 4666 
L 4184 4666 
L 4184 0 
L 3553 0 
L 3553 2222 
L 1259 2222 
L 1259 0 
L 628 0 
L 628 4666 
z
" transform="scale(0.015625)"/>
      <path id="DejaVuSans-45" d="M 628 4666 
L 3578 4666 
L 3578 4134 
L 1259 4134 
L 1259 2753 
L 3481 2753 
L 3481 2222 
L 1259 2222 
L 1259 531 
L 3634 531 
L 3634 0 
L 628 0 
L 628 4666 
z
" transform="scale(0.015625)"/>
      <path id="DejaVuSans-78" d="M 3513 3500 
L 2247 1797 
L 3578 0 
L 2900 0 
L 1881 1375 
L 863 0 
L 184 0 
L 1544 1831 
L 300 3500 
L 978 3500 
L 1906 2253 
L 2834 3500 
L 3513 3500 
z
" transform="scale(0.015625)"/>
     </defs>
     <use xlink:href="#DejaVuSans-43"/>
     <use xlink:href="#DejaVuSans-6c" x="69.824219"/>
     <use xlink:href="#DejaVuSans-69" x="97.607422"/>
     <use xlink:href="#DejaVuSans-65" x="125.390625"/>
     <use xlink:href="#DejaVuSans-6e" x="186.914062"/>
     <use xlink:href="#DejaVuSans-74" x="250.292969"/>
     <use xlink:href="#DejaVuSans-48" x="289.501953"/>
     <use xlink:href="#DejaVuSans-65" x="364.697266"/>
     <use xlink:href="#DejaVuSans-6c" x="426.220703"/>
     <use xlink:href="#DejaVuSans-6c" x="454.003906"/>
     <use xlink:href="#DejaVuSans-6f" x="481.787109"/>
     <use xlink:href="#DejaVuSans-20" x="542.96875"/>
     <use xlink:href="#DejaVuSans-45" x="574.755859"/>
     <use xlink:href="#DejaVuSans-78" x="637.939453"/>
     <use xlink:href="#DejaVuSans-74" x="697.119141"/>
     <use xlink:href="#DejaVuSans-65" x="736.328125"/>
     <use xlink:href="#DejaVuSans-6e" x="797.851562"/>
     <use xlink:href="#DejaVuSans-73" x="861.230469"/>
     <use xlink:href="#DejaVuSans-69" x="913.330078"/>
     <use xlink:href="#DejaVuSans-6f" x="941.113281"/>
     <use xlink:href="#DejaVuSans-6e" x="1002.294922"/>
     <use xlink:href="#DejaVuSans-73" x="1065.673828"/>
    </g>
   </g>
   <g id="legend_1">
    <g id="patch_9">
     <path d="M 381.739062 102.951875 
L 511.4 102.951875 
Q 513.4 102.951875 513.4 100.951875 
L 513.4 50.2 
Q 513.4 48.2 511.4 48.2 
L 381.739062 48.2 
Q 379.739062 48.2 379.739062 50.2 
L 379.739062 100.951875 
Q 379.739062 102.951875 381.739062 102.951875 
z
" style="fill: #ffffff; opacity: 0.8; stroke: #cccccc; stroke-linejoin: miter"/>
    </g>
    <g id="patch_10">
     <path d="M 383.739062 66.437187 
L 403.739062 66.437187 
L 403.739062 59.437187 
L 383.739062 59.437187 
L 383.739062 66.437187 
z
" style="fill: none; stroke: #1f77b4; stroke-width: 2; stroke-linejoin: miter"/>
    </g>
    <g id="text_17">
     <!-- TLS -->
     <g transform="translate(411.739062 59.798437) scale(0.1 -0.1)">
      <defs>
       <path id="DejaVuSans-4c" d="M 628 4666 
L 1259 4666 
L 1259 531 
L 3531 531 
L 3531 0 
L 628 0 
L 628 4666 
z
" transform="scale(0.015625)"/>
       <path id="DejaVuSans-53" d="M 3425 4513 
L 3425 3897 
Q 3066 4069 2747 4153 
Q 2428 4238 2131 4238 
Q 1616 4238 1336 4038 
Q 1056 3838 1056 3469 
Q 1056 3159 1242 3001 
Q 1428 2844 1947 2747 
L 2328 2669 
Q 3034 2534 3370 2195 
Q 3706 1856 3706 1288 
Q 3706 609 3251 259 
Q 2797 -91 1919 -91 
Q 1588 -91 1214 -16 
Q 841 59 441 206 
L 441 856 
Q 825 641 1194 531 
Q 1563 422 1919 422 
Q 2459 422 2753 634 
Q 3047 847 3047 1241 
Q 3047 1584 2836 1778 
Q 2625 1972 2144 2069 
L 1759 2144 
Q 1053 2284 737 2584 
Q 422 2884 422 3419 
Q 422 4038 858 4394 
Q 1294 4750 2059 4750 
Q 2388 4750 2728 4690 
Q 3069 4631 3425 4513 
z
" transform="scale(0.015625)"/>
      </defs>
      <use xlink:href="#DejaVuSans-54"/>
      <use xlink:href="#DejaVuSans-4c" x="61.083984"/>
      <use xlink:href="#DejaVuSans-53" x="116.796875"/>
     </g>
     <!-- (mean=0.0857 ms) -->
     <g transform="translate(411.739062 70.99625) scale(0.1 -0.1)">
      <defs>
       <path id="DejaVuSans-3d" d="M 678 2906 
L 4684 2906 
L 4684 2381 
L 678 2381 
L 678 2906 
z
M 678 1631 
L 4684 1631 
L 4684 1100 
L 678 1100 
L 678 1631 
z
" transform="scale(0.015625)"/>
      </defs>
      <use xlink:href="#DejaVuSans-28"/>
      <use xlink:href="#DejaVuSans-6d" x="39.013672"/>
      <use xlink:href="#DejaVuSans-65" x="136.425781"/>
      <use xlink:href="#DejaVuSans-61" x="197.949219"/>
      <use xlink:href="#DejaVuSans-6e" x="259.228516"/>
      <use xlink:href="#DejaVuSans-3d" x="322.607422"/>
      <use xlink:href="#DejaVuSans-30" x="406.396484"/>
      <use xlink:href="#DejaVuSans-2e" x="470.019531"/>
      <use xlink:href="#DejaVuSans-30" x="501.806641"/>
      <use xlink:href="#DejaVuSans-38" x="565.429688"/>
      <use xlink:href="#DejaVuSans-35" x="629.052734"/>
      <use xlink:href="#DejaVuSans-37" x="692.675781"/>
      <use xlink:href="#DejaVuSans-20" x="756.298828"/>
      <use xlink:href="#DejaVuSans-6d" x="788.085938"/>
      <use xlink:href="#DejaVuSans-73" x="885.498047"/>
      <use xlink:href="#DejaVuSans-29" x="937.597656"/>
     </g>
    </g>
    <g id="patch_11">
     <path d="M 383.739062 92.313125 
L 403.739062 92.313125 
L 403.739062 85.313125 
L 383.739062 85.313125 
L 383.739062 92.313125 
z
" style="fill: none; stroke: #ff7f0e; stroke-width: 2; stroke-linejoin: miter"/>
    </g>
    <g id="text_18">
     <!-- TLS with RA -->
     <g transform="translate(411.739062 85.674375) scale(0.1 -0.1)">
      <defs>
       <path id="DejaVuSans-77" d="M 269 3500 
L 844 3500 
L 1563 769 
L 2278 3500 
L 2956 3500 
L 3675 769 
L 4391 3500 
L 4966 3500 
L 4050 0 
L 3372 0 
L 2619 2869 
L 1863 0 
L 1184 0 
L 269 3500 
z
" transform="scale(0.015625)"/>
       <path id="DejaVuSans-68" d="M 3513 2113 
L 3513 0 
L 2938 0 
L 2938 2094 
Q 2938 2591 2744 2837 
Q 2550 3084 2163 3084 
Q 1697 3084 1428 2787 
Q 1159 2491 1159 1978 
L 1159 0 
L 581 0 
L 581 4863 
L 1159 4863 
L 1159 2956 
Q 1366 3272 1645 3428 
Q 1925 3584 2291 3584 
Q 2894 3584 3203 3211 
Q 3513 2838 3513 2113 
z
" transform="scale(0.015625)"/>
       <path id="DejaVuSans-52" d="M 2841 2188 
Q 3044 2119 3236 1894 
Q 3428 1669 3622 1275 
L 4263 0 
L 3584 0 
L 2988 1197 
Q 2756 1666 2539 1819 
Q 2322 1972 1947 1972 
L 1259 1972 
L 1259 0 
L 628 0 
L 628 4666 
L 2053 4666 
Q 2853 4666 3247 4331 
Q 3641 3997 3641 3322 
Q 3641 2881 3436 2590 
Q 3231 2300 2841 2188 
z
M 1259 4147 
L 1259 2491 
L 2053 2491 
Q 2509 2491 2742 2702 
Q 2975 2913 2975 3322 
Q 2975 3731 2742 3939 
Q 2509 4147 2053 4147 
L 1259 4147 
z
" transform="scale(0.015625)"/>
       <path id="DejaVuSans-41" d="M 2188 4044 
L 1331 1722 
L 3047 1722 
L 2188 4044 
z
M 1831 4666 
L 2547 4666 
L 4325 0 
L 3669 0 
L 3244 1197 
L 1141 1197 
L 716 0 
L 50 0 
L 1831 4666 
z
" transform="scale(0.015625)"/>
      </defs>
      <use xlink:href="#DejaVuSans-54"/>
      <use xlink:href="#DejaVuSans-4c" x="61.083984"/>
      <use xlink:href="#DejaVuSans-53" x="116.796875"/>
      <use xlink:href="#DejaVuSans-20" x="180.273438"/>
      <use xlink:href="#DejaVuSans-77" x="212.060547"/>
      <use xlink:href="#DejaVuSans-69" x="293.847656"/>
      <use xlink:href="#DejaVuSans-74" x="321.630859"/>
      <use xlink:href="#DejaVuSans-68" x="360.839844"/>
      <use xlink:href="#DejaVuSans-20" x="424.21875"/>
      <use xlink:href="#DejaVuSans-52" x="456.005859"/>
      <use xlink:href="#DejaVuSans-41" x="521.488281"/>
     </g>
     <!-- (mean=0.0859 ms) -->
     <g transform="translate(411.739062 96.872187) scale(0.1 -0.1)">
      <use xlink:href="#DejaVuSans-28"/>
      <use xlink:href="#DejaVuSans-6d" x="39.013672"/>
      <use xlink:href="#DejaVuSans-65" x="136.425781"/>
      <use xlink:href="#DejaVuSans-61" x="197.949219"/>
      <use xlink:href="#DejaVuSans-6e" x="259.228516"/>
      <use xlink:href="#DejaVuSans-3d" x="322.607422"/>
      <use xlink:href="#DejaVuSans-30" x="406.396484"/>
      <use xlink:href="#DejaVuSans-2e" x="470.019531"/>
      <use xlink:href="#DejaVuSans-30" x="501.806641"/>
      <use xlink:href="#DejaVuSans-38" x="565.429688"/>
      <use xlink:href="#DejaVuSans-35" x="629.052734"/>
      <use xlink:href="#DejaVuSans-39" x="692.675781"/>
      <use xlink:href="#DejaVuSans-20" x="756.298828"/>
      <use xlink:href="#DejaVuSans-6d" x="788.085938"/>
      <use xlink:href="#DejaVuSans-73" x="885.498047"/>
      <use xlink:href="#DejaVuSans-29" x="937.597656"/>
     </g>
    </g>
   </g>
  </g>
 </g>
 <defs>
  <clipPath id="p05135146c6">
   <rect x="72" y="43.2" width="446.4" height="277.2"/>
  </clipPath>
 </defs>
</svg>
