<?xml version="1.0" encoding="utf-8" standalone="no"?>
<!DOCTYPE svg PUBLIC "-//W3C//DTD SVG 1.1//EN"
  "http://www.w3.org/Graphics/SVG/1.1/DTD/svg11.dtd">
<svg xmlns:xlink="http://www.w3.org/1999/xlink" width="576pt" height="360pt" viewBox="0 0 576 360" xmlns="http://www.w3.org/2000/svg" version="1.1">
 <metadata>
  <rdf:RDF xmlns:dc="http://purl.org/dc/elements/1.1/" xmlns:cc="http://creativecommons.org/ns#" xmlns:rdf="http://www.w3.org/1999/02/22-rdf-syntax-ns#">
   <cc:Work>
    <dc:type rdf:resource="http://purl.org/dc/dcmitype/StillImage"/>
    <dc:date>2023-09-03T23:15:37.153055</dc:date>
    <dc:format>image/svg+xml</dc:format>
    <dc:creator>
     <cc:Agent>
      <dc:title>Matplotlib v3.7.2, https://matplotlib.org/</dc:title>
     </cc:Agent>
    </dc:creator>
   </cc:Work>
  </rdf:RDF>
 </metadata>
 <defs>
  <style type="text/css">*{stroke-linejoin: round; stroke-linecap: butt}</style>
 </defs>
 <g id="figure_1">
  <g id="patch_1">
   <path d="M 0 360 
L 576 360 
L 576 0 
L 0 0 
z
" style="fill: #ffffff"/>
  </g>
  <g id="axes_1">
   <g id="patch_2">
    <path d="M 72 320.4 
L 518.4 320.4 
L 518.4 43.2 
L 72 43.2 
z
" style="fill: #ffffff"/>
   </g>
   <g id="matplotlib.axis_1">
    <g id="xtick_1">
     <g id="line2d_1">
      <path d="M 99.132436 320.4 
L 99.132436 43.2 
" clip-path="url(#p59f73d6c3a)" style="fill: none; stroke: #b0b0b0; stroke-width: 0.8; stroke-linecap: square"/>
     </g>
     <g id="line2d_2">
      <defs>
       <path id="mce0ff799fb" d="M 0 0 
L 0 3.5 
" style="stroke: #000000; stroke-width: 0.8"/>
      </defs>
      <g>
       <use xlink:href="#mce0ff799fb" x="99.132436" y="320.4" style="stroke: #000000; stroke-width: 0.8"/>
      </g>
     </g>
     <g id="text_1">
      <!-- 4.9 -->
      <g transform="translate(91.180874 334.998438) scale(0.1 -0.1)">
       <defs>
        <path id="DejaVuSans-34" d="M 2419 4116 
L 825 1625 
L 2419 1625 
L 2419 4116 
z
M 2253 4666 
L 3047 4666 
L 3047 1625 
L 3713 1625 
L 3713 1100 
L 3047 1100 
L 3047 0 
L 2419 0 
L 2419 1100 
L 313 1100 
L 313 1709 
L 2253 4666 
z
" transform="scale(0.015625)"/>
        <path id="DejaVuSans-2e" d="M 684 794 
L 1344 794 
L 1344 0 
L 684 0 
L 684 794 
z
" transform="scale(0.015625)"/>
        <path id="DejaVuSans-39" d="M 703 97 
L 703 672 
Q 941 559 1184 500 
Q 1428 441 1663 441 
Q 2288 441 2617 861 
Q 2947 1281 2994 2138 
Q 2813 1869 2534 1725 
Q 2256 1581 1919 1581 
Q 1219 1581 811 2004 
Q 403 2428 403 3163 
Q 403 3881 828 4315 
Q 1253 4750 1959 4750 
Q 2769 4750 3195 4129 
Q 3622 3509 3622 2328 
Q 3622 1225 3098 567 
Q 2575 -91 1691 -91 
Q 1453 -91 1209 -44 
Q 966 3 703 97 
z
M 1959 2075 
Q 2384 2075 2632 2365 
Q 2881 2656 2881 3163 
Q 2881 3666 2632 3958 
Q 2384 4250 1959 4250 
Q 1534 4250 1286 3958 
Q 1038 3666 1038 3163 
Q 1038 2656 1286 2365 
Q 1534 2075 1959 2075 
z
" transform="scale(0.015625)"/>
       </defs>
       <use xlink:href="#DejaVuSans-34"/>
       <use xlink:href="#DejaVuSans-2e" x="63.623047"/>
       <use xlink:href="#DejaVuSans-39" x="95.410156"/>
      </g>
     </g>
    </g>
    <g id="xtick_2">
     <g id="line2d_3">
      <path d="M 161.215258 320.4 
L 161.215258 43.2 
" clip-path="url(#p59f73d6c3a)" style="fill: none; stroke: #b0b0b0; stroke-width: 0.8; stroke-linecap: square"/>
     </g>
     <g id="line2d_4">
      <g>
       <use xlink:href="#mce0ff799fb" x="161.215258" y="320.4" style="stroke: #000000; stroke-width: 0.8"/>
      </g>
     </g>
     <g id="text_2">
      <!-- 5.0 -->
      <g transform="translate(153.263696 334.998438) scale(0.1 -0.1)">
       <defs>
        <path id="DejaVuSans-35" d="M 691 4666 
L 3169 4666 
L 3169 4134 
L 1269 4134 
L 1269 2991 
Q 1406 3038 1543 3061 
Q 1681 3084 1819 3084 
Q 2600 3084 3056 2656 
Q 3513 2228 3513 1497 
Q 3513 744 3044 326 
Q 2575 -91 1722 -91 
Q 1428 -91 1123 -41 
Q 819 9 494 109 
L 494 744 
Q 775 591 1075 516 
Q 1375 441 1709 441 
Q 2250 441 2565 725 
Q 2881 1009 2881 1497 
Q 2881 1984 2565 2268 
Q 2250 2553 1709 2553 
Q 1456 2553 1204 2497 
Q 953 2441 691 2322 
L 691 4666 
z
" transform="scale(0.015625)"/>
        <path id="DejaVuSans-30" d="M 2034 4250 
Q 1547 4250 1301 3770 
Q 1056 3291 1056 2328 
Q 1056 1369 1301 889 
Q 1547 409 2034 409 
Q 2525 409 2770 889 
Q 3016 1369 3016 2328 
Q 3016 3291 2770 3770 
Q 2525 4250 2034 4250 
z
M 2034 4750 
Q 2819 4750 3233 4129 
Q 3647 3509 3647 2328 
Q 3647 1150 3233 529 
Q 2819 -91 2034 -91 
Q 1250 -91 836 529 
Q 422 1150 422 2328 
Q 422 3509 836 4129 
Q 1250 4750 2034 4750 
z
" transform="scale(0.015625)"/>
       </defs>
       <use xlink:href="#DejaVuSans-35"/>
       <use xlink:href="#DejaVuSans-2e" x="63.623047"/>
       <use xlink:href="#DejaVuSans-30" x="95.410156"/>
      </g>
     </g>
    </g>
    <g id="xtick_3">
     <g id="line2d_5">
      <path d="M 223.298081 320.4 
L 223.298081 43.2 
" clip-path="url(#p59f73d6c3a)" style="fill: none; stroke: #b0b0b0; stroke-width: 0.8; stroke-linecap: square"/>
     </g>
     <g id="line2d_6">
      <g>
       <use xlink:href="#mce0ff799fb" x="223.298081" y="320.4" style="stroke: #000000; stroke-width: 0.8"/>
      </g>
     </g>
     <g id="text_3">
      <!-- 5.1 -->
      <g transform="translate(215.346518 334.998438) scale(0.1 -0.1)">
       <defs>
        <path id="DejaVuSans-31" d="M 794 531 
L 1825 531 
L 1825 4091 
L 703 3866 
L 703 4441 
L 1819 4666 
L 2450 4666 
L 2450 531 
L 3481 531 
L 3481 0 
L 794 0 
L 794 531 
z
" transform="scale(0.015625)"/>
       </defs>
       <use xlink:href="#DejaVuSans-35"/>
       <use xlink:href="#DejaVuSans-2e" x="63.623047"/>
       <use xlink:href="#DejaVuSans-31" x="95.410156"/>
      </g>
     </g>
    </g>
    <g id="xtick_4">
     <g id="line2d_7">
      <path d="M 285.380903 320.4 
L 285.380903 43.2 
" clip-path="url(#p59f73d6c3a)" style="fill: none; stroke: #b0b0b0; stroke-width: 0.8; stroke-linecap: square"/>
     </g>
     <g id="line2d_8">
      <g>
       <use xlink:href="#mce0ff799fb" x="285.380903" y="320.4" style="stroke: #000000; stroke-width: 0.8"/>
      </g>
     </g>
     <g id="text_4">
      <!-- 5.2 -->
      <g transform="translate(277.429341 334.998438) scale(0.1 -0.1)">
       <defs>
        <path id="DejaVuSans-32" d="M 1228 531 
L 3431 531 
L 3431 0 
L 469 0 
L 469 531 
Q 828 903 1448 1529 
Q 2069 2156 2228 2338 
Q 2531 2678 2651 2914 
Q 2772 3150 2772 3378 
Q 2772 3750 2511 3984 
Q 2250 4219 1831 4219 
Q 1534 4219 1204 4116 
Q 875 4013 500 3803 
L 500 4441 
Q 881 4594 1212 4672 
Q 1544 4750 1819 4750 
Q 2544 4750 2975 4387 
Q 3406 4025 3406 3419 
Q 3406 3131 3298 2873 
Q 3191 2616 2906 2266 
Q 2828 2175 2409 1742 
Q 1991 1309 1228 531 
z
" transform="scale(0.015625)"/>
       </defs>
       <use xlink:href="#DejaVuSans-35"/>
       <use xlink:href="#DejaVuSans-2e" x="63.623047"/>
       <use xlink:href="#DejaVuSans-32" x="95.410156"/>
      </g>
     </g>
    </g>
    <g id="xtick_5">
     <g id="line2d_9">
      <path d="M 347.463726 320.4 
L 347.463726 43.2 
" clip-path="url(#p59f73d6c3a)" style="fill: none; stroke: #b0b0b0; stroke-width: 0.8; stroke-linecap: square"/>
     </g>
     <g id="line2d_10">
      <g>
       <use xlink:href="#mce0ff799fb" x="347.463726" y="320.4" style="stroke: #000000; stroke-width: 0.8"/>
      </g>
     </g>
     <g id="text_5">
      <!-- 5.3 -->
      <g transform="translate(339.512163 334.998438) scale(0.1 -0.1)">
       <defs>
        <path id="DejaVuSans-33" d="M 2597 2516 
Q 3050 2419 3304 2112 
Q 3559 1806 3559 1356 
Q 3559 666 3084 287 
Q 2609 -91 1734 -91 
Q 1441 -91 1130 -33 
Q 819 25 488 141 
L 488 750 
Q 750 597 1062 519 
Q 1375 441 1716 441 
Q 2309 441 2620 675 
Q 2931 909 2931 1356 
Q 2931 1769 2642 2001 
Q 2353 2234 1838 2234 
L 1294 2234 
L 1294 2753 
L 1863 2753 
Q 2328 2753 2575 2939 
Q 2822 3125 2822 3475 
Q 2822 3834 2567 4026 
Q 2313 4219 1838 4219 
Q 1578 4219 1281 4162 
Q 984 4106 628 3988 
L 628 4550 
Q 988 4650 1302 4700 
Q 1616 4750 1894 4750 
Q 2613 4750 3031 4423 
Q 3450 4097 3450 3541 
Q 3450 3153 3228 2886 
Q 3006 2619 2597 2516 
z
" transform="scale(0.015625)"/>
       </defs>
       <use xlink:href="#DejaVuSans-35"/>
       <use xlink:href="#DejaVuSans-2e" x="63.623047"/>
       <use xlink:href="#DejaVuSans-33" x="95.410156"/>
      </g>
     </g>
    </g>
    <g id="xtick_6">
     <g id="line2d_11">
      <path d="M 409.546548 320.4 
L 409.546548 43.2 
" clip-path="url(#p59f73d6c3a)" style="fill: none; stroke: #b0b0b0; stroke-width: 0.8; stroke-linecap: square"/>
     </g>
     <g id="line2d_12">
      <g>
       <use xlink:href="#mce0ff799fb" x="409.546548" y="320.4" style="stroke: #000000; stroke-width: 0.8"/>
      </g>
     </g>
     <g id="text_6">
      <!-- 5.4 -->
      <g transform="translate(401.594985 334.998438) scale(0.1 -0.1)">
       <use xlink:href="#DejaVuSans-35"/>
       <use xlink:href="#DejaVuSans-2e" x="63.623047"/>
       <use xlink:href="#DejaVuSans-34" x="95.410156"/>
      </g>
     </g>
    </g>
    <g id="xtick_7">
     <g id="line2d_13">
      <path d="M 471.62937 320.4 
L 471.62937 43.2 
" clip-path="url(#p59f73d6c3a)" style="fill: none; stroke: #b0b0b0; stroke-width: 0.8; stroke-linecap: square"/>
     </g>
     <g id="line2d_14">
      <g>
       <use xlink:href="#mce0ff799fb" x="471.62937" y="320.4" style="stroke: #000000; stroke-width: 0.8"/>
      </g>
     </g>
     <g id="text_7">
      <!-- 5.5 -->
      <g transform="translate(463.677808 334.998438) scale(0.1 -0.1)">
       <use xlink:href="#DejaVuSans-35"/>
       <use xlink:href="#DejaVuSans-2e" x="63.623047"/>
       <use xlink:href="#DejaVuSans-35" x="95.410156"/>
      </g>
     </g>
    </g>
    <g id="text_8">
     <!-- Time (ms) -->
     <g transform="translate(270.000781 348.676562) scale(0.1 -0.1)">
      <defs>
       <path id="DejaVuSans-54" d="M -19 4666 
L 3928 4666 
L 3928 4134 
L 2272 4134 
L 2272 0 
L 1638 0 
L 1638 4134 
L -19 4134 
L -19 4666 
z
" transform="scale(0.015625)"/>
       <path id="DejaVuSans-69" d="M 603 3500 
L 1178 3500 
L 1178 0 
L 603 0 
L 603 3500 
z
M 603 4863 
L 1178 4863 
L 1178 4134 
L 603 4134 
L 603 4863 
z
" transform="scale(0.015625)"/>
       <path id="DejaVuSans-6d" d="M 3328 2828 
Q 3544 3216 3844 3400 
Q 4144 3584 4550 3584 
Q 5097 3584 5394 3201 
Q 5691 2819 5691 2113 
L 5691 0 
L 5113 0 
L 5113 2094 
Q 5113 2597 4934 2840 
Q 4756 3084 4391 3084 
Q 3944 3084 3684 2787 
Q 3425 2491 3425 1978 
L 3425 0 
L 2847 0 
L 2847 2094 
Q 2847 2600 2669 2842 
Q 2491 3084 2119 3084 
Q 1678 3084 1418 2786 
Q 1159 2488 1159 1978 
L 1159 0 
L 581 0 
L 581 3500 
L 1159 3500 
L 1159 2956 
Q 1356 3278 1631 3431 
Q 1906 3584 2284 3584 
Q 2666 3584 2933 3390 
Q 3200 3197 3328 2828 
z
" transform="scale(0.015625)"/>
       <path id="DejaVuSans-65" d="M 3597 1894 
L 3597 1613 
L 953 1613 
Q 991 1019 1311 708 
Q 1631 397 2203 397 
Q 2534 397 2845 478 
Q 3156 559 3463 722 
L 3463 178 
Q 3153 47 2828 -22 
Q 2503 -91 2169 -91 
Q 1331 -91 842 396 
Q 353 884 353 1716 
Q 353 2575 817 3079 
Q 1281 3584 2069 3584 
Q 2775 3584 3186 3129 
Q 3597 2675 3597 1894 
z
M 3022 2063 
Q 3016 2534 2758 2815 
Q 2500 3097 2075 3097 
Q 1594 3097 1305 2825 
Q 1016 2553 972 2059 
L 3022 2063 
z
" transform="scale(0.015625)"/>
       <path id="DejaVuSans-20" transform="scale(0.015625)"/>
       <path id="DejaVuSans-28" d="M 1984 4856 
Q 1566 4138 1362 3434 
Q 1159 2731 1159 2009 
Q 1159 1288 1364 580 
Q 1569 -128 1984 -844 
L 1484 -844 
Q 1016 -109 783 600 
Q 550 1309 550 2009 
Q 550 2706 781 3412 
Q 1013 4119 1484 4856 
L 1984 4856 
z
" transform="scale(0.015625)"/>
       <path id="DejaVuSans-73" d="M 2834 3397 
L 2834 2853 
Q 2591 2978 2328 3040 
Q 2066 3103 1784 3103 
Q 1356 3103 1142 2972 
Q 928 2841 928 2578 
Q 928 2378 1081 2264 
Q 1234 2150 1697 2047 
L 1894 2003 
Q 2506 1872 2764 1633 
Q 3022 1394 3022 966 
Q 3022 478 2636 193 
Q 2250 -91 1575 -91 
Q 1294 -91 989 -36 
Q 684 19 347 128 
L 347 722 
Q 666 556 975 473 
Q 1284 391 1588 391 
Q 1994 391 2212 530 
Q 2431 669 2431 922 
Q 2431 1156 2273 1281 
Q 2116 1406 1581 1522 
L 1381 1569 
Q 847 1681 609 1914 
Q 372 2147 372 2553 
Q 372 3047 722 3315 
Q 1072 3584 1716 3584 
Q 2034 3584 2315 3537 
Q 2597 3491 2834 3397 
z
" transform="scale(0.015625)"/>
       <path id="DejaVuSans-29" d="M 513 4856 
L 1013 4856 
Q 1481 4119 1714 3412 
Q 1947 2706 1947 2009 
Q 1947 1309 1714 600 
Q 1481 -109 1013 -844 
L 513 -844 
Q 928 -128 1133 580 
Q 1338 1288 1338 2009 
Q 1338 2731 1133 3434 
Q 928 4138 513 4856 
z
" transform="scale(0.015625)"/>
      </defs>
      <use xlink:href="#DejaVuSans-54"/>
      <use xlink:href="#DejaVuSans-69" x="57.958984"/>
      <use xlink:href="#DejaVuSans-6d" x="85.742188"/>
      <use xlink:href="#DejaVuSans-65" x="183.154297"/>
      <use xlink:href="#DejaVuSans-20" x="244.677734"/>
      <use xlink:href="#DejaVuSans-28" x="276.464844"/>
      <use xlink:href="#DejaVuSans-6d" x="315.478516"/>
      <use xlink:href="#DejaVuSans-73" x="412.890625"/>
      <use xlink:href="#DejaVuSans-29" x="464.990234"/>
     </g>
    </g>
   </g>
   <g id="matplotlib.axis_2">
    <g id="ytick_1">
     <g id="line2d_15">
      <path d="M 72 320.4 
L 518.4 320.4 
" clip-path="url(#p59f73d6c3a)" style="fill: none; stroke: #b0b0b0; stroke-width: 0.8; stroke-linecap: square"/>
     </g>
     <g id="line2d_16">
      <defs>
       <path id="m15b36a6f40" d="M 0 0 
L -3.5 0 
" style="stroke: #000000; stroke-width: 0.8"/>
      </defs>
      <g>
       <use xlink:href="#m15b36a6f40" x="72" y="320.4" style="stroke: #000000; stroke-width: 0.8"/>
      </g>
     </g>
     <g id="text_9">
      <!-- 0 -->
      <g transform="translate(58.6375 324.199219) scale(0.1 -0.1)">
       <use xlink:href="#DejaVuSans-30"/>
      </g>
     </g>
    </g>
    <g id="ytick_2">
     <g id="line2d_17">
      <path d="M 72 266.893717 
L 518.4 266.893717 
" clip-path="url(#p59f73d6c3a)" style="fill: none; stroke: #b0b0b0; stroke-width: 0.8; stroke-linecap: square"/>
     </g>
     <g id="line2d_18">
      <g>
       <use xlink:href="#m15b36a6f40" x="72" y="266.893717" style="stroke: #000000; stroke-width: 0.8"/>
      </g>
     </g>
     <g id="text_10">
      <!-- 500 -->
      <g transform="translate(45.9125 270.692936) scale(0.1 -0.1)">
       <use xlink:href="#DejaVuSans-35"/>
       <use xlink:href="#DejaVuSans-30" x="63.623047"/>
       <use xlink:href="#DejaVuSans-30" x="127.246094"/>
      </g>
     </g>
    </g>
    <g id="ytick_3">
     <g id="line2d_19">
      <path d="M 72 213.387434 
L 518.4 213.387434 
" clip-path="url(#p59f73d6c3a)" style="fill: none; stroke: #b0b0b0; stroke-width: 0.8; stroke-linecap: square"/>
     </g>
     <g id="line2d_20">
      <g>
       <use xlink:href="#m15b36a6f40" x="72" y="213.387434" style="stroke: #000000; stroke-width: 0.8"/>
      </g>
     </g>
     <g id="text_11">
      <!-- 1000 -->
      <g transform="translate(39.55 217.186653) scale(0.1 -0.1)">
       <use xlink:href="#DejaVuSans-31"/>
       <use xlink:href="#DejaVuSans-30" x="63.623047"/>
       <use xlink:href="#DejaVuSans-30" x="127.246094"/>
       <use xlink:href="#DejaVuSans-30" x="190.869141"/>
      </g>
     </g>
    </g>
    <g id="ytick_4">
     <g id="line2d_21">
      <path d="M 72 159.881151 
L 518.4 159.881151 
" clip-path="url(#p59f73d6c3a)" style="fill: none; stroke: #b0b0b0; stroke-width: 0.8; stroke-linecap: square"/>
     </g>
     <g id="line2d_22">
      <g>
       <use xlink:href="#m15b36a6f40" x="72" y="159.881151" style="stroke: #000000; stroke-width: 0.8"/>
      </g>
     </g>
     <g id="text_12">
      <!-- 1500 -->
      <g transform="translate(39.55 163.68037) scale(0.1 -0.1)">
       <use xlink:href="#DejaVuSans-31"/>
       <use xlink:href="#DejaVuSans-35" x="63.623047"/>
       <use xlink:href="#DejaVuSans-30" x="127.246094"/>
       <use xlink:href="#DejaVuSans-30" x="190.869141"/>
      </g>
     </g>
    </g>
    <g id="ytick_5">
     <g id="line2d_23">
      <path d="M 72 106.374868 
L 518.4 106.374868 
" clip-path="url(#p59f73d6c3a)" style="fill: none; stroke: #b0b0b0; stroke-width: 0.8; stroke-linecap: square"/>
     </g>
     <g id="line2d_24">
      <g>
       <use xlink:href="#m15b36a6f40" x="72" y="106.374868" style="stroke: #000000; stroke-width: 0.8"/>
      </g>
     </g>
     <g id="text_13">
      <!-- 2000 -->
      <g transform="translate(39.55 110.174087) scale(0.1 -0.1)">
       <use xlink:href="#DejaVuSans-32"/>
       <use xlink:href="#DejaVuSans-30" x="63.623047"/>
       <use xlink:href="#DejaVuSans-30" x="127.246094"/>
       <use xlink:href="#DejaVuSans-30" x="190.869141"/>
      </g>
     </g>
    </g>
    <g id="ytick_6">
     <g id="line2d_25">
      <path d="M 72 52.868585 
L 518.4 52.868585 
" clip-path="url(#p59f73d6c3a)" style="fill: none; stroke: #b0b0b0; stroke-width: 0.8; stroke-linecap: square"/>
     </g>
     <g id="line2d_26">
      <g>
       <use xlink:href="#m15b36a6f40" x="72" y="52.868585" style="stroke: #000000; stroke-width: 0.8"/>
      </g>
     </g>
     <g id="text_14">
      <!-- 2500 -->
      <g transform="translate(39.55 56.667804) scale(0.1 -0.1)">
       <use xlink:href="#DejaVuSans-32"/>
       <use xlink:href="#DejaVuSans-35" x="63.623047"/>
       <use xlink:href="#DejaVuSans-30" x="127.246094"/>
       <use xlink:href="#DejaVuSans-30" x="190.869141"/>
      </g>
     </g>
    </g>
    <g id="text_15">
     <!-- Frequency (total=95000) -->
     <g transform="translate(33.470312 244.649219) rotate(-90) scale(0.1 -0.1)">
      <defs>
       <path id="DejaVuSans-46" d="M 628 4666 
L 3309 4666 
L 3309 4134 
L 1259 4134 
L 1259 2759 
L 3109 2759 
L 3109 2228 
L 1259 2228 
L 1259 0 
L 628 0 
L 628 4666 
z
" transform="scale(0.015625)"/>
       <path id="DejaVuSans-72" d="M 2631 2963 
Q 2534 3019 2420 3045 
Q 2306 3072 2169 3072 
Q 1681 3072 1420 2755 
Q 1159 2438 1159 1844 
L 1159 0 
L 581 0 
L 581 3500 
L 1159 3500 
L 1159 2956 
Q 1341 3275 1631 3429 
Q 1922 3584 2338 3584 
Q 2397 3584 2469 3576 
Q 2541 3569 2628 3553 
L 2631 2963 
z
" transform="scale(0.015625)"/>
       <path id="DejaVuSans-71" d="M 947 1747 
Q 947 1113 1208 752 
Q 1469 391 1925 391 
Q 2381 391 2643 752 
Q 2906 1113 2906 1747 
Q 2906 2381 2643 2742 
Q 2381 3103 1925 3103 
Q 1469 3103 1208 2742 
Q 947 2381 947 1747 
z
M 2906 525 
Q 2725 213 2448 61 
Q 2172 -91 1784 -91 
Q 1150 -91 751 415 
Q 353 922 353 1747 
Q 353 2572 751 3078 
Q 1150 3584 1784 3584 
Q 2172 3584 2448 3432 
Q 2725 3281 2906 2969 
L 2906 3500 
L 3481 3500 
L 3481 -1331 
L 2906 -1331 
L 2906 525 
z
" transform="scale(0.015625)"/>
       <path id="DejaVuSans-75" d="M 544 1381 
L 544 3500 
L 1119 3500 
L 1119 1403 
Q 1119 906 1312 657 
Q 1506 409 1894 409 
Q 2359 409 2629 706 
Q 2900 1003 2900 1516 
L 2900 3500 
L 3475 3500 
L 3475 0 
L 2900 0 
L 2900 538 
Q 2691 219 2414 64 
Q 2138 -91 1772 -91 
Q 1169 -91 856 284 
Q 544 659 544 1381 
z
M 1991 3584 
L 1991 3584 
z
" transform="scale(0.015625)"/>
       <path id="DejaVuSans-6e" d="M 3513 2113 
L 3513 0 
L 2938 0 
L 2938 2094 
Q 2938 2591 2744 2837 
Q 2550 3084 2163 3084 
Q 1697 3084 1428 2787 
Q 1159 2491 1159 1978 
L 1159 0 
L 581 0 
L 581 3500 
L 1159 3500 
L 1159 2956 
Q 1366 3272 1645 3428 
Q 1925 3584 2291 3584 
Q 2894 3584 3203 3211 
Q 3513 2838 3513 2113 
z
" transform="scale(0.015625)"/>
       <path id="DejaVuSans-63" d="M 3122 3366 
L 3122 2828 
Q 2878 2963 2633 3030 
Q 2388 3097 2138 3097 
Q 1578 3097 1268 2742 
Q 959 2388 959 1747 
Q 959 1106 1268 751 
Q 1578 397 2138 397 
Q 2388 397 2633 464 
Q 2878 531 3122 666 
L 3122 134 
Q 2881 22 2623 -34 
Q 2366 -91 2075 -91 
Q 1284 -91 818 406 
Q 353 903 353 1747 
Q 353 2603 823 3093 
Q 1294 3584 2113 3584 
Q 2378 3584 2631 3529 
Q 2884 3475 3122 3366 
z
" transform="scale(0.015625)"/>
       <path id="DejaVuSans-79" d="M 2059 -325 
Q 1816 -950 1584 -1140 
Q 1353 -1331 966 -1331 
L 506 -1331 
L 506 -850 
L 844 -850 
Q 1081 -850 1212 -737 
Q 1344 -625 1503 -206 
L 1606 56 
L 191 3500 
L 800 3500 
L 1894 763 
L 2988 3500 
L 3597 3500 
L 2059 -325 
z
" transform="scale(0.015625)"/>
       <path id="DejaVuSans-74" d="M 1172 4494 
L 1172 3500 
L 2356 3500 
L 2356 3053 
L 1172 3053 
L 1172 1153 
Q 1172 725 1289 603 
Q 1406 481 1766 481 
L 2356 481 
L 2356 0 
L 1766 0 
Q 1100 0 847 248 
Q 594 497 594 1153 
L 594 3053 
L 172 3053 
L 172 3500 
L 594 3500 
L 594 4494 
L 1172 4494 
z
" transform="scale(0.015625)"/>
       <path id="DejaVuSans-6f" d="M 1959 3097 
Q 1497 3097 1228 2736 
Q 959 2375 959 1747 
Q 959 1119 1226 758 
Q 1494 397 1959 397 
Q 2419 397 2687 759 
Q 2956 1122 2956 1747 
Q 2956 2369 2687 2733 
Q 2419 3097 1959 3097 
z
M 1959 3584 
Q 2709 3584 3137 3096 
Q 3566 2609 3566 1747 
Q 3566 888 3137 398 
Q 2709 -91 1959 -91 
Q 1206 -91 779 398 
Q 353 888 353 1747 
Q 353 2609 779 3096 
Q 1206 3584 1959 3584 
z
" transform="scale(0.015625)"/>
       <path id="DejaVuSans-61" d="M 2194 1759 
Q 1497 1759 1228 1600 
Q 959 1441 959 1056 
Q 959 750 1161 570 
Q 1363 391 1709 391 
Q 2188 391 2477 730 
Q 2766 1069 2766 1631 
L 2766 1759 
L 2194 1759 
z
M 3341 1997 
L 3341 0 
L 2766 0 
L 2766 531 
Q 2569 213 2275 61 
Q 1981 -91 1556 -91 
Q 1019 -91 701 211 
Q 384 513 384 1019 
Q 384 1609 779 1909 
Q 1175 2209 1959 2209 
L 2766 2209 
L 2766 2266 
Q 2766 2663 2505 2880 
Q 2244 3097 1772 3097 
Q 1472 3097 1187 3025 
Q 903 2953 641 2809 
L 641 3341 
Q 956 3463 1253 3523 
Q 1550 3584 1831 3584 
Q 2591 3584 2966 3190 
Q 3341 2797 3341 1997 
z
" transform="scale(0.015625)"/>
       <path id="DejaVuSans-6c" d="M 603 4863 
L 1178 4863 
L 1178 0 
L 603 0 
L 603 4863 
z
" transform="scale(0.015625)"/>
       <path id="DejaVuSans-3d" d="M 678 2906 
L 4684 2906 
L 4684 2381 
L 678 2381 
L 678 2906 
z
M 678 1631 
L 4684 1631 
L 4684 1100 
L 678 1100 
L 678 1631 
z
" transform="scale(0.015625)"/>
      </defs>
      <use xlink:href="#DejaVuSans-46"/>
      <use xlink:href="#DejaVuSans-72" x="50.269531"/>
      <use xlink:href="#DejaVuSans-65" x="89.132812"/>
      <use xlink:href="#DejaVuSans-71" x="150.65625"/>
      <use xlink:href="#DejaVuSans-75" x="214.132812"/>
      <use xlink:href="#DejaVuSans-65" x="277.511719"/>
      <use xlink:href="#DejaVuSans-6e" x="339.035156"/>
      <use xlink:href="#DejaVuSans-63" x="402.414062"/>
      <use xlink:href="#DejaVuSans-79" x="457.394531"/>
      <use xlink:href="#DejaVuSans-20" x="516.574219"/>
      <use xlink:href="#DejaVuSans-28" x="548.361328"/>
      <use xlink:href="#DejaVuSans-74" x="587.375"/>
      <use xlink:href="#DejaVuSans-6f" x="626.583984"/>
      <use xlink:href="#DejaVuSans-74" x="687.765625"/>
      <use xlink:href="#DejaVuSans-61" x="726.974609"/>
      <use xlink:href="#DejaVuSans-6c" x="788.253906"/>
      <use xlink:href="#DejaVuSans-3d" x="816.037109"/>
      <use xlink:href="#DejaVuSans-39" x="899.826172"/>
      <use xlink:href="#DejaVuSans-35" x="963.449219"/>
      <use xlink:href="#DejaVuSans-30" x="1027.072266"/>
      <use xlink:href="#DejaVuSans-30" x="1090.695312"/>
      <use xlink:href="#DejaVuSans-30" x="1154.318359"/>
      <use xlink:href="#DejaVuSans-29" x="1217.941406"/>
     </g>
    </g>
   </g>
   <g id="patch_3">
    <path d="M 92.290909 320.4 
L 92.290909 279.94925 
L 96.390083 279.94925 
L 96.390083 272.351358 
L 100.489256 272.351358 
L 100.489256 263.041265 
L 104.58843 263.041265 
L 104.58843 257.048561 
L 108.687603 257.048561 
L 108.687603 253.303121 
L 112.786777 253.303121 
L 112.786777 240.354601 
L 116.88595 240.354601 
L 116.88595 232.007621 
L 120.985124 232.007621 
L 120.985124 218.845075 
L 125.084298 218.845075 
L 125.084298 190.058695 
L 129.183471 190.058695 
L 129.183471 158.16895 
L 133.282645 158.16895 
L 133.282645 110.976409 
L 137.381818 110.976409 
L 137.381818 88.50377 
L 141.480992 88.50377 
L 141.480992 67.957357 
L 145.580165 67.957357 
L 145.580165 82.190028 
L 149.679339 82.190028 
L 149.679339 89.894933 
L 153.778512 89.894933 
L 153.778512 99.205026 
L 157.877686 99.205026 
L 157.877686 126.600243 
L 161.97686 126.600243 
L 161.97686 121.249615 
L 166.076033 121.249615 
L 166.076033 122.961816 
L 170.175207 122.961816 
L 170.175207 126.386218 
L 174.27438 126.386218 
L 174.27438 122.319741 
L 178.373554 122.319741 
L 178.373554 125.63713 
L 182.472727 125.63713 
L 182.472727 133.663073 
L 186.571901 133.663073 
L 186.571901 137.3015 
L 190.671074 137.3015 
L 190.671074 143.401216 
L 194.770248 143.401216 
L 194.770248 148.644832 
L 198.869421 148.644832 
L 198.869421 158.704013 
L 202.968595 158.704013 
L 202.968595 162.021403 
L 207.067769 162.021403 
L 207.067769 172.294609 
L 211.166942 172.294609 
L 211.166942 175.826024 
L 215.266116 175.826024 
L 215.266116 177.324199 
L 219.365289 177.324199 
L 219.365289 180.641589 
L 223.464463 180.641589 
L 223.464463 169.512282 
L 227.563636 169.512282 
L 227.563636 162.128415 
L 231.66281 162.128415 
L 231.66281 167.050993 
L 235.761983 167.050993 
L 235.761983 167.586056 
L 239.861157 167.586056 
L 239.861157 164.054641 
L 243.960331 164.054641 
L 243.960331 159.774139 
L 248.059504 159.774139 
L 248.059504 158.811026 
L 252.158678 158.811026 
L 252.158678 144.364329 
L 256.257851 144.364329 
L 256.257851 155.279611 
L 260.357025 155.279611 
L 260.357025 163.198541 
L 264.456198 163.198541 
L 264.456198 170.796433 
L 268.555372 170.796433 
L 268.555372 189.737657 
L 272.654545 189.737657 
L 272.654545 200.973976 
L 276.753719 200.973976 
L 276.753719 211.354195 
L 280.852893 211.354195 
L 280.852893 211.675233 
L 284.952066 211.675233 
L 284.952066 216.383786 
L 289.05124 216.383786 
L 289.05124 217.881962 
L 293.150413 217.881962 
L 293.150413 226.121929 
L 297.249587 226.121929 
L 297.249587 224.302716 
L 301.34876 224.302716 
L 301.34876 225.372842 
L 305.447934 225.372842 
L 305.447934 229.653344 
L 309.547107 229.653344 
L 309.547107 226.228942 
L 313.646281 226.228942 
L 313.646281 228.369193 
L 317.745455 228.369193 
L 317.745455 228.155168 
L 321.844628 228.155168 
L 321.844628 217.560924 
L 325.943802 217.560924 
L 325.943802 223.767653 
L 330.042975 223.767653 
L 330.042975 217.132874 
L 334.142149 217.132874 
L 334.142149 224.516741 
L 338.241322 224.516741 
L 338.241322 226.228942 
L 342.340496 226.228942 
L 342.340496 230.402432 
L 346.439669 230.402432 
L 346.439669 232.007621 
L 350.538843 232.007621 
L 350.538843 229.225294 
L 354.638017 229.225294 
L 354.638017 236.823186 
L 358.73719 236.823186 
L 358.73719 240.782651 
L 362.836364 240.782651 
L 362.836364 248.166518 
L 366.935537 248.166518 
L 366.935537 259.723875 
L 371.034711 259.723875 
L 371.034711 258.653749 
L 375.133884 258.653749 
L 375.133884 270.639157 
L 379.233058 270.639157 
L 379.233058 272.779408 
L 383.332231 272.779408 
L 383.332231 271.388245 
L 387.431405 271.388245 
L 387.431405 275.77576 
L 391.530579 275.77576 
L 391.530579 274.277584 
L 395.629752 274.277584 
L 395.629752 279.842238 
L 399.728926 279.842238 
L 399.728926 278.986137 
L 403.828099 278.986137 
L 403.828099 278.344062 
L 407.927273 278.344062 
L 407.927273 277.487961 
L 412.026446 277.487961 
L 412.026446 281.126388 
L 416.12562 281.126388 
L 416.12562 285.192866 
L 420.224793 285.192866 
L 420.224793 281.554439 
L 424.323967 281.554439 
L 424.323967 286.370004 
L 428.42314 286.370004 
L 428.42314 286.048966 
L 432.522314 286.048966 
L 432.522314 287.761167 
L 436.621488 287.761167 
L 436.621488 291.292582 
L 440.720661 291.292582 
L 440.720661 290.008431 
L 444.819835 290.008431 
L 444.819835 294.074909 
L 448.919008 294.074909 
L 448.919008 296.64321 
L 453.018182 296.64321 
L 453.018182 296.429185 
L 457.117355 296.429185 
L 457.117355 295.35906 
L 461.216529 295.35906 
L 461.216529 296.429185 
L 465.315702 296.429185 
L 465.315702 299.211512 
L 469.414876 299.211512 
L 469.414876 300.38865 
L 473.51405 300.38865 
L 473.51405 300.067612 
L 477.613223 300.067612 
L 477.613223 301.244751 
L 481.712397 301.244751 
L 481.712397 299.746575 
L 485.81157 299.746575 
L 485.81157 301.244751 
L 489.910744 301.244751 
L 489.910744 302.528901 
L 494.009917 302.528901 
L 494.009917 303.063964 
L 498.109091 303.063964 
L 498.109091 320.4 
L 498.109091 320.4 
" clip-path="url(#p59f73d6c3a)" style="fill: none; stroke: #1f77b4; stroke-width: 2; stroke-linejoin: miter"/>
   </g>
   <g id="line2d_27">
    <path d="M 240.220706 320.4 
L 240.220706 43.2 
" clip-path="url(#p59f73d6c3a)" style="fill: none; stroke-dasharray: 2,3.3; stroke-dashoffset: 0; stroke: #1f77b4; stroke-width: 2"/>
   </g>
   <g id="patch_4">
    <path d="M 92.290909 320.4 
L 100.489256 320.4 
L 100.489256 302.314876 
L 104.58843 302.314876 
L 104.58843 280.805351 
L 108.687603 280.805351 
L 108.687603 279.735225 
L 112.786777 279.735225 
L 112.786777 268.28488 
L 116.88595 268.28488 
L 116.88595 261.436076 
L 120.985124 261.436076 
L 120.985124 255.76441 
L 125.084298 255.76441 
L 125.084298 246.98938 
L 129.183471 246.98938 
L 129.183471 225.586867 
L 133.282645 225.586867 
L 133.282645 207.287718 
L 137.381818 207.287718 
L 137.381818 178.60835 
L 141.480992 178.60835 
L 141.480992 140.939927 
L 145.580165 140.939927 
L 145.580165 110.869396 
L 149.679339 110.869396 
L 149.679339 79.835752 
L 153.778512 79.835752 
L 153.778512 66.352169 
L 157.877686 66.352169 
L 157.877686 56.4 
L 161.97686 56.4 
L 161.97686 68.06437 
L 166.076033 68.06437 
L 166.076033 87.219619 
L 170.175207 87.219619 
L 170.175207 109.692258 
L 174.27438 109.692258 
L 174.27438 118.039238 
L 178.373554 118.039238 
L 178.373554 115.898987 
L 182.472727 115.898987 
L 182.472727 113.97276 
L 186.571901 113.97276 
L 186.571901 130.23867 
L 190.671074 130.23867 
L 190.671074 123.389866 
L 194.770248 123.389866 
L 194.770248 141.153952 
L 198.869421 141.153952 
L 198.869421 140.297852 
L 202.968595 140.297852 
L 202.968595 149.714957 
L 207.067769 149.714957 
L 207.067769 161.272315 
L 211.166942 161.272315 
L 211.166942 164.482692 
L 215.266116 164.482692 
L 215.266116 171.973571 
L 219.365289 171.973571 
L 219.365289 177.538225 
L 223.464463 177.538225 
L 223.464463 184.065991 
L 227.563636 184.065991 
L 227.563636 173.043697 
L 231.66281 173.043697 
L 231.66281 174.113822 
L 235.761983 174.113822 
L 235.761983 170.475395 
L 239.861157 170.475395 
L 239.861157 157.954925 
L 243.960331 157.954925 
L 243.960331 160.416214 
L 248.059504 160.416214 
L 248.059504 161.272315 
L 252.158678 161.272315 
L 252.158678 159.453101 
L 256.257851 159.453101 
L 256.257851 156.135711 
L 260.357025 156.135711 
L 260.357025 141.367977 
L 264.456198 141.367977 
L 264.456198 150.892096 
L 268.555372 150.892096 
L 268.555372 133.55606 
L 272.654545 133.55606 
L 272.654545 164.803729 
L 276.753719 164.803729 
L 276.753719 171.866559 
L 280.852893 171.866559 
L 280.852893 191.663883 
L 284.952066 191.663883 
L 284.952066 201.723064 
L 289.05124 201.723064 
L 289.05124 211.675233 
L 293.150413 211.675233 
L 293.150413 229.118281 
L 297.249587 229.118281 
L 297.249587 222.37649 
L 301.34876 222.37649 
L 301.34876 226.335955 
L 305.447934 226.335955 
L 305.447934 236.181111 
L 309.547107 236.181111 
L 309.547107 237.465261 
L 313.646281 237.465261 
L 313.646281 236.288123 
L 321.844628 236.181111 
L 321.844628 235.646048 
L 325.943802 235.646048 
L 325.943802 231.258533 
L 330.042975 231.258533 
L 330.042975 230.509445 
L 334.142149 230.509445 
L 334.142149 224.730766 
L 338.241322 224.730766 
L 338.241322 231.472558 
L 342.340496 231.472558 
L 342.340496 232.328658 
L 346.439669 232.328658 
L 346.439669 232.542683 
L 350.538843 232.542683 
L 350.538843 228.690231 
L 354.638017 228.690231 
L 354.638017 228.476206 
L 358.73719 228.476206 
L 358.73719 232.542683 
L 362.836364 232.542683 
L 362.836364 241.103689 
L 366.935537 241.103689 
L 366.935537 237.144224 
L 371.034711 237.144224 
L 371.034711 243.029915 
L 375.133884 243.029915 
L 375.133884 242.601865 
L 379.233058 242.601865 
L 379.233058 253.089096 
L 383.332231 253.089096 
L 383.332231 257.476611 
L 387.431405 257.476611 
L 387.431405 261.971139 
L 391.530579 261.971139 
L 391.530579 265.395541 
L 395.629752 265.395541 
L 395.629752 276.310823 
L 403.828099 276.20381 
L 403.828099 277.701986 
L 407.927273 277.701986 
L 407.927273 280.270288 
L 412.026446 280.270288 
L 412.026446 274.277584 
L 416.12562 274.277584 
L 416.12562 277.059911 
L 420.224793 277.059911 
L 420.224793 281.340413 
L 424.323967 281.340413 
L 424.323967 284.764816 
L 428.42314 284.764816 
L 428.42314 279.842238 
L 432.522314 279.842238 
L 432.522314 285.299878 
L 436.621488 285.299878 
L 436.621488 284.12274 
L 440.720661 284.12274 
L 440.720661 282.731577 
L 444.819835 282.731577 
L 444.819835 285.406891 
L 448.919008 285.406891 
L 448.919008 286.155979 
L 453.018182 286.155979 
L 453.018182 288.938306 
L 457.117355 288.938306 
L 457.117355 290.757519 
L 461.216529 290.757519 
L 461.216529 290.329469 
L 465.315702 290.329469 
L 465.315702 293.218808 
L 469.414876 293.218808 
L 469.414876 294.823997 
L 473.51405 294.823997 
L 473.51405 296.750223 
L 477.613223 296.750223 
L 477.613223 298.676449 
L 481.712397 298.676449 
L 481.712397 301.993839 
L 485.81157 301.993839 
L 485.81157 301.244751 
L 489.910744 301.244751 
L 489.910744 302.100851 
L 494.009917 302.100851 
L 494.009917 304.56214 
L 498.109091 304.56214 
L 498.109091 320.4 
L 498.109091 320.4 
" clip-path="url(#p59f73d6c3a)" style="fill: none; stroke: #ff7f0e; stroke-width: 2; stroke-linejoin: miter"/>
   </g>
   <g id="line2d_28">
    <path d="M 249.946519 320.4 
L 249.946519 43.2 
" clip-path="url(#p59f73d6c3a)" style="fill: none; stroke-dasharray: 2,3.3; stroke-dashoffset: 0; stroke: #ff7f0e; stroke-width: 2"/>
   </g>
   <g id="patch_5">
    <path d="M 72 320.4 
L 72 43.2 
" style="fill: none; stroke: #000000; stroke-width: 0.8; stroke-linejoin: miter; stroke-linecap: square"/>
   </g>
   <g id="patch_6">
    <path d="M 518.4 320.4 
L 518.4 43.2 
" style="fill: none; stroke: #000000; stroke-width: 0.8; stroke-linejoin: miter; stroke-linecap: square"/>
   </g>
   <g id="patch_7">
    <path d="M 72 320.4 
L 518.4 320.4 
" style="fill: none; stroke: #000000; stroke-width: 0.8; stroke-linejoin: miter; stroke-linecap: square"/>
   </g>
   <g id="patch_8">
    <path d="M 72 43.2 
L 518.4 43.2 
" style="fill: none; stroke: #000000; stroke-width: 0.8; stroke-linejoin: miter; stroke-linecap: square"/>
   </g>
   <g id="text_16">
    <!-- Handshake (S) (no ECH) -->
    <g transform="translate(222.985312 37.2) scale(0.12 -0.12)">
     <defs>
      <path id="DejaVuSans-48" d="M 628 4666 
L 1259 4666 
L 1259 2753 
L 3553 2753 
L 3553 4666 
L 4184 4666 
L 4184 0 
L 3553 0 
L 3553 2222 
L 1259 2222 
L 1259 0 
L 628 0 
L 628 4666 
z
" transform="scale(0.015625)"/>
      <path id="DejaVuSans-64" d="M 2906 2969 
L 2906 4863 
L 3481 4863 
L 3481 0 
L 2906 0 
L 2906 525 
Q 2725 213 2448 61 
Q 2172 -91 1784 -91 
Q 1150 -91 751 415 
Q 353 922 353 1747 
Q 353 2572 751 3078 
Q 1150 3584 1784 3584 
Q 2172 3584 2448 3432 
Q 2725 3281 2906 2969 
z
M 947 1747 
Q 947 1113 1208 752 
Q 1469 391 1925 391 
Q 2381 391 2643 752 
Q 2906 1113 2906 1747 
Q 2906 2381 2643 2742 
Q 2381 3103 1925 3103 
Q 1469 3103 1208 2742 
Q 947 2381 947 1747 
z
" transform="scale(0.015625)"/>
      <path id="DejaVuSans-68" d="M 3513 2113 
L 3513 0 
L 2938 0 
L 2938 2094 
Q 2938 2591 2744 2837 
Q 2550 3084 2163 3084 
Q 1697 3084 1428 2787 
Q 1159 2491 1159 1978 
L 1159 0 
L 581 0 
L 581 4863 
L 1159 4863 
L 1159 2956 
Q 1366 3272 1645 3428 
Q 1925 3584 2291 3584 
Q 2894 3584 3203 3211 
Q 3513 2838 3513 2113 
z
" transform="scale(0.015625)"/>
      <path id="DejaVuSans-6b" d="M 581 4863 
L 1159 4863 
L 1159 1991 
L 2875 3500 
L 3609 3500 
L 1753 1863 
L 3688 0 
L 2938 0 
L 1159 1709 
L 1159 0 
L 581 0 
L 581 4863 
z
" transform="scale(0.015625)"/>
      <path id="DejaVuSans-53" d="M 3425 4513 
L 3425 3897 
Q 3066 4069 2747 4153 
Q 2428 4238 2131 4238 
Q 1616 4238 1336 4038 
Q 1056 3838 1056 3469 
Q 1056 3159 1242 3001 
Q 1428 2844 1947 2747 
L 2328 2669 
Q 3034 2534 3370 2195 
Q 3706 1856 3706 1288 
Q 3706 609 3251 259 
Q 2797 -91 1919 -91 
Q 1588 -91 1214 -16 
Q 841 59 441 206 
L 441 856 
Q 825 641 1194 531 
Q 1563 422 1919 422 
Q 2459 422 2753 634 
Q 3047 847 3047 1241 
Q 3047 1584 2836 1778 
Q 2625 1972 2144 2069 
L 1759 2144 
Q 1053 2284 737 2584 
Q 422 2884 422 3419 
Q 422 4038 858 4394 
Q 1294 4750 2059 4750 
Q 2388 4750 2728 4690 
Q 3069 4631 3425 4513 
z
" transform="scale(0.015625)"/>
      <path id="DejaVuSans-45" d="M 628 4666 
L 3578 4666 
L 3578 4134 
L 1259 4134 
L 1259 2753 
L 3481 2753 
L 3481 2222 
L 1259 2222 
L 1259 531 
L 3634 531 
L 3634 0 
L 628 0 
L 628 4666 
z
" transform="scale(0.015625)"/>
      <path id="DejaVuSans-43" d="M 4122 4306 
L 4122 3641 
Q 3803 3938 3442 4084 
Q 3081 4231 2675 4231 
Q 1875 4231 1450 3742 
Q 1025 3253 1025 2328 
Q 1025 1406 1450 917 
Q 1875 428 2675 428 
Q 3081 428 3442 575 
Q 3803 722 4122 1019 
L 4122 359 
Q 3791 134 3420 21 
Q 3050 -91 2638 -91 
Q 1578 -91 968 557 
Q 359 1206 359 2328 
Q 359 3453 968 4101 
Q 1578 4750 2638 4750 
Q 3056 4750 3426 4639 
Q 3797 4528 4122 4306 
z
" transform="scale(0.015625)"/>
     </defs>
     <use xlink:href="#DejaVuSans-48"/>
     <use xlink:href="#DejaVuSans-61" x="75.195312"/>
     <use xlink:href="#DejaVuSans-6e" x="136.474609"/>
     <use xlink:href="#DejaVuSans-64" x="199.853516"/>
     <use xlink:href="#DejaVuSans-73" x="263.330078"/>
     <use xlink:href="#DejaVuSans-68" x="315.429688"/>
     <use xlink:href="#DejaVuSans-61" x="378.808594"/>
     <use xlink:href="#DejaVuSans-6b" x="440.087891"/>
     <use xlink:href="#DejaVuSans-65" x="494.373047"/>
     <use xlink:href="#DejaVuSans-20" x="555.896484"/>
     <use xlink:href="#DejaVuSans-28" x="587.683594"/>
     <use xlink:href="#DejaVuSans-53" x="626.697266"/>
     <use xlink:href="#DejaVuSans-29" x="690.173828"/>
     <use xlink:href="#DejaVuSans-20" x="729.1875"/>
     <use xlink:href="#DejaVuSans-28" x="760.974609"/>
     <use xlink:href="#DejaVuSans-6e" x="799.988281"/>
     <use xlink:href="#DejaVuSans-6f" x="863.367188"/>
     <use xlink:href="#DejaVuSans-20" x="924.548828"/>
     <use xlink:href="#DejaVuSans-45" x="956.335938"/>
     <use xlink:href="#DejaVuSans-43" x="1019.519531"/>
     <use xlink:href="#DejaVuSans-48" x="1089.34375"/>
     <use xlink:href="#DejaVuSans-29" x="1164.539062"/>
    </g>
   </g>
   <g id="legend_1">
    <g id="patch_9">
     <path d="M 389.542187 109.9125 
L 511.4 109.9125 
Q 513.4 109.9125 513.4 107.9125 
L 513.4 50.2 
Q 513.4 48.2 511.4 48.2 
L 389.542187 48.2 
Q 387.542187 48.2 387.542187 50.2 
L 387.542187 107.9125 
Q 387.542187 109.9125 389.542187 109.9125 
z
" style="fill: #ffffff; opacity: 0.8; stroke: #cccccc; stroke-linejoin: miter"/>
    </g>
    <g id="patch_10">
     <path d="M 391.542187 59.798437 
L 411.542187 59.798437 
L 411.542187 52.798437 
L 391.542187 52.798437 
L 391.542187 59.798437 
z
" style="fill: none; stroke: #1f77b4; stroke-width: 2; stroke-linejoin: miter"/>
    </g>
    <g id="text_17">
     <!-- TLS -->
     <g transform="translate(419.542187 59.798437) scale(0.1 -0.1)">
      <defs>
       <path id="DejaVuSans-4c" d="M 628 4666 
L 1259 4666 
L 1259 531 
L 3531 531 
L 3531 0 
L 628 0 
L 628 4666 
z
" transform="scale(0.015625)"/>
      </defs>
      <use xlink:href="#DejaVuSans-54"/>
      <use xlink:href="#DejaVuSans-4c" x="61.083984"/>
      <use xlink:href="#DejaVuSans-53" x="116.796875"/>
     </g>
    </g>
    <g id="line2d_29">
     <path d="M 391.542187 70.976562 
L 401.542187 70.976562 
L 411.542187 70.976562 
" style="fill: none; stroke-dasharray: 2,3.3; stroke-dashoffset: 0; stroke: #1f77b4; stroke-width: 2"/>
    </g>
    <g id="text_18">
     <!-- mean=5.1273 ms -->
     <g transform="translate(419.542187 74.476562) scale(0.1 -0.1)">
      <defs>
       <path id="DejaVuSans-37" d="M 525 4666 
L 3525 4666 
L 3525 4397 
L 1831 0 
L 1172 0 
L 2766 4134 
L 525 4134 
L 525 4666 
z
" transform="scale(0.015625)"/>
      </defs>
      <use xlink:href="#DejaVuSans-6d"/>
      <use xlink:href="#DejaVuSans-65" x="97.412109"/>
      <use xlink:href="#DejaVuSans-61" x="158.935547"/>
      <use xlink:href="#DejaVuSans-6e" x="220.214844"/>
      <use xlink:href="#DejaVuSans-3d" x="283.59375"/>
      <use xlink:href="#DejaVuSans-35" x="367.382812"/>
      <use xlink:href="#DejaVuSans-2e" x="431.005859"/>
      <use xlink:href="#DejaVuSans-31" x="462.792969"/>
      <use xlink:href="#DejaVuSans-32" x="526.416016"/>
      <use xlink:href="#DejaVuSans-37" x="590.039062"/>
      <use xlink:href="#DejaVuSans-33" x="653.662109"/>
      <use xlink:href="#DejaVuSans-20" x="717.285156"/>
      <use xlink:href="#DejaVuSans-6d" x="749.072266"/>
      <use xlink:href="#DejaVuSans-73" x="846.484375"/>
     </g>
    </g>
    <g id="patch_11">
     <path d="M 391.542187 89.154687 
L 411.542187 89.154687 
L 411.542187 82.154687 
L 391.542187 82.154687 
L 391.542187 89.154687 
z
" style="fill: none; stroke: #ff7f0e; stroke-width: 2; stroke-linejoin: miter"/>
    </g>
    <g id="text_19">
     <!-- TLS with RA -->
     <g transform="translate(419.542187 89.154687) scale(0.1 -0.1)">
      <defs>
       <path id="DejaVuSans-77" d="M 269 3500 
L 844 3500 
L 1563 769 
L 2278 3500 
L 2956 3500 
L 3675 769 
L 4391 3500 
L 4966 3500 
L 4050 0 
L 3372 0 
L 2619 2869 
L 1863 0 
L 1184 0 
L 269 3500 
z
" transform="scale(0.015625)"/>
       <path id="DejaVuSans-52" d="M 2841 2188 
Q 3044 2119 3236 1894 
Q 3428 1669 3622 1275 
L 4263 0 
L 3584 0 
L 2988 1197 
Q 2756 1666 2539 1819 
Q 2322 1972 1947 1972 
L 1259 1972 
L 1259 0 
L 628 0 
L 628 4666 
L 2053 4666 
Q 2853 4666 3247 4331 
Q 3641 3997 3641 3322 
Q 3641 2881 3436 2590 
Q 3231 2300 2841 2188 
z
M 1259 4147 
L 1259 2491 
L 2053 2491 
Q 2509 2491 2742 2702 
Q 2975 2913 2975 3322 
Q 2975 3731 2742 3939 
Q 2509 4147 2053 4147 
L 1259 4147 
z
" transform="scale(0.015625)"/>
       <path id="DejaVuSans-41" d="M 2188 4044 
L 1331 1722 
L 3047 1722 
L 2188 4044 
z
M 1831 4666 
L 2547 4666 
L 4325 0 
L 3669 0 
L 3244 1197 
L 1141 1197 
L 716 0 
L 50 0 
L 1831 4666 
z
" transform="scale(0.015625)"/>
      </defs>
      <use xlink:href="#DejaVuSans-54"/>
      <use xlink:href="#DejaVuSans-4c" x="61.083984"/>
      <use xlink:href="#DejaVuSans-53" x="116.796875"/>
      <use xlink:href="#DejaVuSans-20" x="180.273438"/>
      <use xlink:href="#DejaVuSans-77" x="212.060547"/>
      <use xlink:href="#DejaVuSans-69" x="293.847656"/>
      <use xlink:href="#DejaVuSans-74" x="321.630859"/>
      <use xlink:href="#DejaVuSans-68" x="360.839844"/>
      <use xlink:href="#DejaVuSans-20" x="424.21875"/>
      <use xlink:href="#DejaVuSans-52" x="456.005859"/>
      <use xlink:href="#DejaVuSans-41" x="521.488281"/>
     </g>
    </g>
    <g id="line2d_30">
     <path d="M 391.542187 100.332812 
L 401.542187 100.332812 
L 411.542187 100.332812 
" style="fill: none; stroke-dasharray: 2,3.3; stroke-dashoffset: 0; stroke: #ff7f0e; stroke-width: 2"/>
    </g>
    <g id="text_20">
     <!-- mean=5.1429 ms -->
     <g transform="translate(419.542187 103.832812) scale(0.1 -0.1)">
      <use xlink:href="#DejaVuSans-6d"/>
      <use xlink:href="#DejaVuSans-65" x="97.412109"/>
      <use xlink:href="#DejaVuSans-61" x="158.935547"/>
      <use xlink:href="#DejaVuSans-6e" x="220.214844"/>
      <use xlink:href="#DejaVuSans-3d" x="283.59375"/>
      <use xlink:href="#DejaVuSans-35" x="367.382812"/>
      <use xlink:href="#DejaVuSans-2e" x="431.005859"/>
      <use xlink:href="#DejaVuSans-31" x="462.792969"/>
      <use xlink:href="#DejaVuSans-34" x="526.416016"/>
      <use xlink:href="#DejaVuSans-32" x="590.039062"/>
      <use xlink:href="#DejaVuSans-39" x="653.662109"/>
      <use xlink:href="#DejaVuSans-20" x="717.285156"/>
      <use xlink:href="#DejaVuSans-6d" x="749.072266"/>
      <use xlink:href="#DejaVuSans-73" x="846.484375"/>
     </g>
    </g>
   </g>
  </g>
 </g>
 <defs>
  <clipPath id="p59f73d6c3a">
   <rect x="72" y="43.2" width="446.4" height="277.2"/>
  </clipPath>
 </defs>
</svg>
