<?xml version="1.0" encoding="utf-8" standalone="no"?>
<!DOCTYPE svg PUBLIC "-//W3C//DTD SVG 1.1//EN"
  "http://www.w3.org/Graphics/SVG/1.1/DTD/svg11.dtd">
<svg xmlns:xlink="http://www.w3.org/1999/xlink" width="576pt" height="288pt" viewBox="0 0 576 288" xmlns="http://www.w3.org/2000/svg" version="1.1">
 <metadata>
  <rdf:RDF xmlns:dc="http://purl.org/dc/elements/1.1/" xmlns:cc="http://creativecommons.org/ns#" xmlns:rdf="http://www.w3.org/1999/02/22-rdf-syntax-ns#">
   <cc:Work>
    <dc:type rdf:resource="http://purl.org/dc/dcmitype/StillImage"/>
    <dc:date>2023-09-08T08:25:20.497248</dc:date>
    <dc:format>image/svg+xml</dc:format>
    <dc:creator>
     <cc:Agent>
      <dc:title>Matplotlib v3.7.2, https://matplotlib.org/</dc:title>
     </cc:Agent>
    </dc:creator>
   </cc:Work>
  </rdf:RDF>
 </metadata>
 <defs>
  <style type="text/css">*{stroke-linejoin: round; stroke-linecap: butt}</style>
 </defs>
 <g id="figure_1">
  <g id="patch_1">
   <path d="M 0 288 
L 576 288 
L 576 0 
L 0 0 
z
" style="fill: #ffffff"/>
  </g>
  <g id="axes_1">
   <g id="patch_2">
    <path d="M 56.928125 246.84375 
L 565.2 246.84375 
L 565.2 25.918125 
L 56.928125 25.918125 
z
" style="fill: #ffffff"/>
   </g>
   <g id="matplotlib.axis_1">
    <g id="xtick_1">
     <g id="line2d_1">
      <path d="M 100.463458 246.84375 
L 100.463458 25.918125 
" clip-path="url(#p902b0d9a81)" style="fill: none; stroke: #b0b0b0; stroke-width: 0.8; stroke-linecap: square"/>
     </g>
     <g id="line2d_2">
      <defs>
       <path id="m3175a60859" d="M 0 0 
L 0 3.5 
" style="stroke: #000000; stroke-width: 0.8"/>
      </defs>
      <g>
       <use xlink:href="#m3175a60859" x="100.463458" y="246.84375" style="stroke: #000000; stroke-width: 0.8"/>
      </g>
     </g>
     <g id="text_1">
      <!-- 5.1 -->
      <g transform="translate(92.511895 261.442187) scale(0.1 -0.1)">
       <defs>
        <path id="DejaVuSans-35" d="M 691 4666 
L 3169 4666 
L 3169 4134 
L 1269 4134 
L 1269 2991 
Q 1406 3038 1543 3061 
Q 1681 3084 1819 3084 
Q 2600 3084 3056 2656 
Q 3513 2228 3513 1497 
Q 3513 744 3044 326 
Q 2575 -91 1722 -91 
Q 1428 -91 1123 -41 
Q 819 9 494 109 
L 494 744 
Q 775 591 1075 516 
Q 1375 441 1709 441 
Q 2250 441 2565 725 
Q 2881 1009 2881 1497 
Q 2881 1984 2565 2268 
Q 2250 2553 1709 2553 
Q 1456 2553 1204 2497 
Q 953 2441 691 2322 
L 691 4666 
z
" transform="scale(0.015625)"/>
        <path id="DejaVuSans-2e" d="M 684 794 
L 1344 794 
L 1344 0 
L 684 0 
L 684 794 
z
" transform="scale(0.015625)"/>
        <path id="DejaVuSans-31" d="M 794 531 
L 1825 531 
L 1825 4091 
L 703 3866 
L 703 4441 
L 1819 4666 
L 2450 4666 
L 2450 531 
L 3481 531 
L 3481 0 
L 794 0 
L 794 531 
z
" transform="scale(0.015625)"/>
       </defs>
       <use xlink:href="#DejaVuSans-35"/>
       <use xlink:href="#DejaVuSans-2e" x="63.623047"/>
       <use xlink:href="#DejaVuSans-31" x="95.410156"/>
      </g>
     </g>
    </g>
    <g id="xtick_2">
     <g id="line2d_3">
      <path d="M 171.72982 246.84375 
L 171.72982 25.918125 
" clip-path="url(#p902b0d9a81)" style="fill: none; stroke: #b0b0b0; stroke-width: 0.8; stroke-linecap: square"/>
     </g>
     <g id="line2d_4">
      <g>
       <use xlink:href="#m3175a60859" x="171.72982" y="246.84375" style="stroke: #000000; stroke-width: 0.8"/>
      </g>
     </g>
     <g id="text_2">
      <!-- 5.2 -->
      <g transform="translate(163.778257 261.442187) scale(0.1 -0.1)">
       <defs>
        <path id="DejaVuSans-32" d="M 1228 531 
L 3431 531 
L 3431 0 
L 469 0 
L 469 531 
Q 828 903 1448 1529 
Q 2069 2156 2228 2338 
Q 2531 2678 2651 2914 
Q 2772 3150 2772 3378 
Q 2772 3750 2511 3984 
Q 2250 4219 1831 4219 
Q 1534 4219 1204 4116 
Q 875 4013 500 3803 
L 500 4441 
Q 881 4594 1212 4672 
Q 1544 4750 1819 4750 
Q 2544 4750 2975 4387 
Q 3406 4025 3406 3419 
Q 3406 3131 3298 2873 
Q 3191 2616 2906 2266 
Q 2828 2175 2409 1742 
Q 1991 1309 1228 531 
z
" transform="scale(0.015625)"/>
       </defs>
       <use xlink:href="#DejaVuSans-35"/>
       <use xlink:href="#DejaVuSans-2e" x="63.623047"/>
       <use xlink:href="#DejaVuSans-32" x="95.410156"/>
      </g>
     </g>
    </g>
    <g id="xtick_3">
     <g id="line2d_5">
      <path d="M 242.996181 246.84375 
L 242.996181 25.918125 
" clip-path="url(#p902b0d9a81)" style="fill: none; stroke: #b0b0b0; stroke-width: 0.8; stroke-linecap: square"/>
     </g>
     <g id="line2d_6">
      <g>
       <use xlink:href="#m3175a60859" x="242.996181" y="246.84375" style="stroke: #000000; stroke-width: 0.8"/>
      </g>
     </g>
     <g id="text_3">
      <!-- 5.3 -->
      <g transform="translate(235.044619 261.442187) scale(0.1 -0.1)">
       <defs>
        <path id="DejaVuSans-33" d="M 2597 2516 
Q 3050 2419 3304 2112 
Q 3559 1806 3559 1356 
Q 3559 666 3084 287 
Q 2609 -91 1734 -91 
Q 1441 -91 1130 -33 
Q 819 25 488 141 
L 488 750 
Q 750 597 1062 519 
Q 1375 441 1716 441 
Q 2309 441 2620 675 
Q 2931 909 2931 1356 
Q 2931 1769 2642 2001 
Q 2353 2234 1838 2234 
L 1294 2234 
L 1294 2753 
L 1863 2753 
Q 2328 2753 2575 2939 
Q 2822 3125 2822 3475 
Q 2822 3834 2567 4026 
Q 2313 4219 1838 4219 
Q 1578 4219 1281 4162 
Q 984 4106 628 3988 
L 628 4550 
Q 988 4650 1302 4700 
Q 1616 4750 1894 4750 
Q 2613 4750 3031 4423 
Q 3450 4097 3450 3541 
Q 3450 3153 3228 2886 
Q 3006 2619 2597 2516 
z
" transform="scale(0.015625)"/>
       </defs>
       <use xlink:href="#DejaVuSans-35"/>
       <use xlink:href="#DejaVuSans-2e" x="63.623047"/>
       <use xlink:href="#DejaVuSans-33" x="95.410156"/>
      </g>
     </g>
    </g>
    <g id="xtick_4">
     <g id="line2d_7">
      <path d="M 314.262543 246.84375 
L 314.262543 25.918125 
" clip-path="url(#p902b0d9a81)" style="fill: none; stroke: #b0b0b0; stroke-width: 0.8; stroke-linecap: square"/>
     </g>
     <g id="line2d_8">
      <g>
       <use xlink:href="#m3175a60859" x="314.262543" y="246.84375" style="stroke: #000000; stroke-width: 0.8"/>
      </g>
     </g>
     <g id="text_4">
      <!-- 5.4 -->
      <g transform="translate(306.310981 261.442187) scale(0.1 -0.1)">
       <defs>
        <path id="DejaVuSans-34" d="M 2419 4116 
L 825 1625 
L 2419 1625 
L 2419 4116 
z
M 2253 4666 
L 3047 4666 
L 3047 1625 
L 3713 1625 
L 3713 1100 
L 3047 1100 
L 3047 0 
L 2419 0 
L 2419 1100 
L 313 1100 
L 313 1709 
L 2253 4666 
z
" transform="scale(0.015625)"/>
       </defs>
       <use xlink:href="#DejaVuSans-35"/>
       <use xlink:href="#DejaVuSans-2e" x="63.623047"/>
       <use xlink:href="#DejaVuSans-34" x="95.410156"/>
      </g>
     </g>
    </g>
    <g id="xtick_5">
     <g id="line2d_9">
      <path d="M 385.528905 246.84375 
L 385.528905 25.918125 
" clip-path="url(#p902b0d9a81)" style="fill: none; stroke: #b0b0b0; stroke-width: 0.8; stroke-linecap: square"/>
     </g>
     <g id="line2d_10">
      <g>
       <use xlink:href="#m3175a60859" x="385.528905" y="246.84375" style="stroke: #000000; stroke-width: 0.8"/>
      </g>
     </g>
     <g id="text_5">
      <!-- 5.5 -->
      <g transform="translate(377.577342 261.442187) scale(0.1 -0.1)">
       <use xlink:href="#DejaVuSans-35"/>
       <use xlink:href="#DejaVuSans-2e" x="63.623047"/>
       <use xlink:href="#DejaVuSans-35" x="95.410156"/>
      </g>
     </g>
    </g>
    <g id="xtick_6">
     <g id="line2d_11">
      <path d="M 456.795267 246.84375 
L 456.795267 25.918125 
" clip-path="url(#p902b0d9a81)" style="fill: none; stroke: #b0b0b0; stroke-width: 0.8; stroke-linecap: square"/>
     </g>
     <g id="line2d_12">
      <g>
       <use xlink:href="#m3175a60859" x="456.795267" y="246.84375" style="stroke: #000000; stroke-width: 0.8"/>
      </g>
     </g>
     <g id="text_6">
      <!-- 5.6 -->
      <g transform="translate(448.843704 261.442187) scale(0.1 -0.1)">
       <defs>
        <path id="DejaVuSans-36" d="M 2113 2584 
Q 1688 2584 1439 2293 
Q 1191 2003 1191 1497 
Q 1191 994 1439 701 
Q 1688 409 2113 409 
Q 2538 409 2786 701 
Q 3034 994 3034 1497 
Q 3034 2003 2786 2293 
Q 2538 2584 2113 2584 
z
M 3366 4563 
L 3366 3988 
Q 3128 4100 2886 4159 
Q 2644 4219 2406 4219 
Q 1781 4219 1451 3797 
Q 1122 3375 1075 2522 
Q 1259 2794 1537 2939 
Q 1816 3084 2150 3084 
Q 2853 3084 3261 2657 
Q 3669 2231 3669 1497 
Q 3669 778 3244 343 
Q 2819 -91 2113 -91 
Q 1303 -91 875 529 
Q 447 1150 447 2328 
Q 447 3434 972 4092 
Q 1497 4750 2381 4750 
Q 2619 4750 2861 4703 
Q 3103 4656 3366 4563 
z
" transform="scale(0.015625)"/>
       </defs>
       <use xlink:href="#DejaVuSans-35"/>
       <use xlink:href="#DejaVuSans-2e" x="63.623047"/>
       <use xlink:href="#DejaVuSans-36" x="95.410156"/>
      </g>
     </g>
    </g>
    <g id="xtick_7">
     <g id="line2d_13">
      <path d="M 528.061628 246.84375 
L 528.061628 25.918125 
" clip-path="url(#p902b0d9a81)" style="fill: none; stroke: #b0b0b0; stroke-width: 0.8; stroke-linecap: square"/>
     </g>
     <g id="line2d_14">
      <g>
       <use xlink:href="#m3175a60859" x="528.061628" y="246.84375" style="stroke: #000000; stroke-width: 0.8"/>
      </g>
     </g>
     <g id="text_7">
      <!-- 5.7 -->
      <g transform="translate(520.110066 261.442187) scale(0.1 -0.1)">
       <defs>
        <path id="DejaVuSans-37" d="M 525 4666 
L 3525 4666 
L 3525 4397 
L 1831 0 
L 1172 0 
L 2766 4134 
L 525 4134 
L 525 4666 
z
" transform="scale(0.015625)"/>
       </defs>
       <use xlink:href="#DejaVuSans-35"/>
       <use xlink:href="#DejaVuSans-2e" x="63.623047"/>
       <use xlink:href="#DejaVuSans-37" x="95.410156"/>
      </g>
     </g>
    </g>
    <g id="text_8">
     <!-- Time (ms) -->
     <g transform="translate(285.864844 275.120313) scale(0.1 -0.1)">
      <defs>
       <path id="DejaVuSans-54" d="M -19 4666 
L 3928 4666 
L 3928 4134 
L 2272 4134 
L 2272 0 
L 1638 0 
L 1638 4134 
L -19 4134 
L -19 4666 
z
" transform="scale(0.015625)"/>
       <path id="DejaVuSans-69" d="M 603 3500 
L 1178 3500 
L 1178 0 
L 603 0 
L 603 3500 
z
M 603 4863 
L 1178 4863 
L 1178 4134 
L 603 4134 
L 603 4863 
z
" transform="scale(0.015625)"/>
       <path id="DejaVuSans-6d" d="M 3328 2828 
Q 3544 3216 3844 3400 
Q 4144 3584 4550 3584 
Q 5097 3584 5394 3201 
Q 5691 2819 5691 2113 
L 5691 0 
L 5113 0 
L 5113 2094 
Q 5113 2597 4934 2840 
Q 4756 3084 4391 3084 
Q 3944 3084 3684 2787 
Q 3425 2491 3425 1978 
L 3425 0 
L 2847 0 
L 2847 2094 
Q 2847 2600 2669 2842 
Q 2491 3084 2119 3084 
Q 1678 3084 1418 2786 
Q 1159 2488 1159 1978 
L 1159 0 
L 581 0 
L 581 3500 
L 1159 3500 
L 1159 2956 
Q 1356 3278 1631 3431 
Q 1906 3584 2284 3584 
Q 2666 3584 2933 3390 
Q 3200 3197 3328 2828 
z
" transform="scale(0.015625)"/>
       <path id="DejaVuSans-65" d="M 3597 1894 
L 3597 1613 
L 953 1613 
Q 991 1019 1311 708 
Q 1631 397 2203 397 
Q 2534 397 2845 478 
Q 3156 559 3463 722 
L 3463 178 
Q 3153 47 2828 -22 
Q 2503 -91 2169 -91 
Q 1331 -91 842 396 
Q 353 884 353 1716 
Q 353 2575 817 3079 
Q 1281 3584 2069 3584 
Q 2775 3584 3186 3129 
Q 3597 2675 3597 1894 
z
M 3022 2063 
Q 3016 2534 2758 2815 
Q 2500 3097 2075 3097 
Q 1594 3097 1305 2825 
Q 1016 2553 972 2059 
L 3022 2063 
z
" transform="scale(0.015625)"/>
       <path id="DejaVuSans-20" transform="scale(0.015625)"/>
       <path id="DejaVuSans-28" d="M 1984 4856 
Q 1566 4138 1362 3434 
Q 1159 2731 1159 2009 
Q 1159 1288 1364 580 
Q 1569 -128 1984 -844 
L 1484 -844 
Q 1016 -109 783 600 
Q 550 1309 550 2009 
Q 550 2706 781 3412 
Q 1013 4119 1484 4856 
L 1984 4856 
z
" transform="scale(0.015625)"/>
       <path id="DejaVuSans-73" d="M 2834 3397 
L 2834 2853 
Q 2591 2978 2328 3040 
Q 2066 3103 1784 3103 
Q 1356 3103 1142 2972 
Q 928 2841 928 2578 
Q 928 2378 1081 2264 
Q 1234 2150 1697 2047 
L 1894 2003 
Q 2506 1872 2764 1633 
Q 3022 1394 3022 966 
Q 3022 478 2636 193 
Q 2250 -91 1575 -91 
Q 1294 -91 989 -36 
Q 684 19 347 128 
L 347 722 
Q 666 556 975 473 
Q 1284 391 1588 391 
Q 1994 391 2212 530 
Q 2431 669 2431 922 
Q 2431 1156 2273 1281 
Q 2116 1406 1581 1522 
L 1381 1569 
Q 847 1681 609 1914 
Q 372 2147 372 2553 
Q 372 3047 722 3315 
Q 1072 3584 1716 3584 
Q 2034 3584 2315 3537 
Q 2597 3491 2834 3397 
z
" transform="scale(0.015625)"/>
       <path id="DejaVuSans-29" d="M 513 4856 
L 1013 4856 
Q 1481 4119 1714 3412 
Q 1947 2706 1947 2009 
Q 1947 1309 1714 600 
Q 1481 -109 1013 -844 
L 513 -844 
Q 928 -128 1133 580 
Q 1338 1288 1338 2009 
Q 1338 2731 1133 3434 
Q 928 4138 513 4856 
z
" transform="scale(0.015625)"/>
      </defs>
      <use xlink:href="#DejaVuSans-54"/>
      <use xlink:href="#DejaVuSans-69" x="57.958984"/>
      <use xlink:href="#DejaVuSans-6d" x="85.742188"/>
      <use xlink:href="#DejaVuSans-65" x="183.154297"/>
      <use xlink:href="#DejaVuSans-20" x="244.677734"/>
      <use xlink:href="#DejaVuSans-28" x="276.464844"/>
      <use xlink:href="#DejaVuSans-6d" x="315.478516"/>
      <use xlink:href="#DejaVuSans-73" x="412.890625"/>
      <use xlink:href="#DejaVuSans-29" x="464.990234"/>
     </g>
    </g>
   </g>
   <g id="matplotlib.axis_2">
    <g id="ytick_1">
     <g id="line2d_15">
      <path d="M 56.928125 246.84375 
L 565.2 246.84375 
" clip-path="url(#p902b0d9a81)" style="fill: none; stroke: #b0b0b0; stroke-width: 0.8; stroke-linecap: square"/>
     </g>
     <g id="line2d_16">
      <defs>
       <path id="m5ad2972709" d="M 0 0 
L -3.5 0 
" style="stroke: #000000; stroke-width: 0.8"/>
      </defs>
      <g>
       <use xlink:href="#m5ad2972709" x="56.928125" y="246.84375" style="stroke: #000000; stroke-width: 0.8"/>
      </g>
     </g>
     <g id="text_9">
      <!-- 0 -->
      <g transform="translate(43.565625 250.642969) scale(0.1 -0.1)">
       <defs>
        <path id="DejaVuSans-30" d="M 2034 4250 
Q 1547 4250 1301 3770 
Q 1056 3291 1056 2328 
Q 1056 1369 1301 889 
Q 1547 409 2034 409 
Q 2525 409 2770 889 
Q 3016 1369 3016 2328 
Q 3016 3291 2770 3770 
Q 2525 4250 2034 4250 
z
M 2034 4750 
Q 2819 4750 3233 4129 
Q 3647 3509 3647 2328 
Q 3647 1150 3233 529 
Q 2819 -91 2034 -91 
Q 1250 -91 836 529 
Q 422 1150 422 2328 
Q 422 3509 836 4129 
Q 1250 4750 2034 4750 
z
" transform="scale(0.015625)"/>
       </defs>
       <use xlink:href="#DejaVuSans-30"/>
      </g>
     </g>
    </g>
    <g id="ytick_2">
     <g id="line2d_17">
      <path d="M 56.928125 200.396651 
L 565.2 200.396651 
" clip-path="url(#p902b0d9a81)" style="fill: none; stroke: #b0b0b0; stroke-width: 0.8; stroke-linecap: square"/>
     </g>
     <g id="line2d_18">
      <g>
       <use xlink:href="#m5ad2972709" x="56.928125" y="200.396651" style="stroke: #000000; stroke-width: 0.8"/>
      </g>
     </g>
     <g id="text_10">
      <!-- 500 -->
      <g transform="translate(30.840625 204.19587) scale(0.1 -0.1)">
       <use xlink:href="#DejaVuSans-35"/>
       <use xlink:href="#DejaVuSans-30" x="63.623047"/>
       <use xlink:href="#DejaVuSans-30" x="127.246094"/>
      </g>
     </g>
    </g>
    <g id="ytick_3">
     <g id="line2d_19">
      <path d="M 56.928125 153.949553 
L 565.2 153.949553 
" clip-path="url(#p902b0d9a81)" style="fill: none; stroke: #b0b0b0; stroke-width: 0.8; stroke-linecap: square"/>
     </g>
     <g id="line2d_20">
      <g>
       <use xlink:href="#m5ad2972709" x="56.928125" y="153.949553" style="stroke: #000000; stroke-width: 0.8"/>
      </g>
     </g>
     <g id="text_11">
      <!-- 1000 -->
      <g transform="translate(24.478125 157.748771) scale(0.1 -0.1)">
       <use xlink:href="#DejaVuSans-31"/>
       <use xlink:href="#DejaVuSans-30" x="63.623047"/>
       <use xlink:href="#DejaVuSans-30" x="127.246094"/>
       <use xlink:href="#DejaVuSans-30" x="190.869141"/>
      </g>
     </g>
    </g>
    <g id="ytick_4">
     <g id="line2d_21">
      <path d="M 56.928125 107.502454 
L 565.2 107.502454 
" clip-path="url(#p902b0d9a81)" style="fill: none; stroke: #b0b0b0; stroke-width: 0.8; stroke-linecap: square"/>
     </g>
     <g id="line2d_22">
      <g>
       <use xlink:href="#m5ad2972709" x="56.928125" y="107.502454" style="stroke: #000000; stroke-width: 0.8"/>
      </g>
     </g>
     <g id="text_12">
      <!-- 1500 -->
      <g transform="translate(24.478125 111.301673) scale(0.1 -0.1)">
       <use xlink:href="#DejaVuSans-31"/>
       <use xlink:href="#DejaVuSans-35" x="63.623047"/>
       <use xlink:href="#DejaVuSans-30" x="127.246094"/>
       <use xlink:href="#DejaVuSans-30" x="190.869141"/>
      </g>
     </g>
    </g>
    <g id="ytick_5">
     <g id="line2d_23">
      <path d="M 56.928125 61.055355 
L 565.2 61.055355 
" clip-path="url(#p902b0d9a81)" style="fill: none; stroke: #b0b0b0; stroke-width: 0.8; stroke-linecap: square"/>
     </g>
     <g id="line2d_24">
      <g>
       <use xlink:href="#m5ad2972709" x="56.928125" y="61.055355" style="stroke: #000000; stroke-width: 0.8"/>
      </g>
     </g>
     <g id="text_13">
      <!-- 2000 -->
      <g transform="translate(24.478125 64.854574) scale(0.1 -0.1)">
       <use xlink:href="#DejaVuSans-32"/>
       <use xlink:href="#DejaVuSans-30" x="63.623047"/>
       <use xlink:href="#DejaVuSans-30" x="127.246094"/>
       <use xlink:href="#DejaVuSans-30" x="190.869141"/>
      </g>
     </g>
    </g>
    <g id="text_14">
     <!-- Frequency (total=95000) -->
     <g transform="translate(18.398438 199.230156) rotate(-90) scale(0.1 -0.1)">
      <defs>
       <path id="DejaVuSans-46" d="M 628 4666 
L 3309 4666 
L 3309 4134 
L 1259 4134 
L 1259 2759 
L 3109 2759 
L 3109 2228 
L 1259 2228 
L 1259 0 
L 628 0 
L 628 4666 
z
" transform="scale(0.015625)"/>
       <path id="DejaVuSans-72" d="M 2631 2963 
Q 2534 3019 2420 3045 
Q 2306 3072 2169 3072 
Q 1681 3072 1420 2755 
Q 1159 2438 1159 1844 
L 1159 0 
L 581 0 
L 581 3500 
L 1159 3500 
L 1159 2956 
Q 1341 3275 1631 3429 
Q 1922 3584 2338 3584 
Q 2397 3584 2469 3576 
Q 2541 3569 2628 3553 
L 2631 2963 
z
" transform="scale(0.015625)"/>
       <path id="DejaVuSans-71" d="M 947 1747 
Q 947 1113 1208 752 
Q 1469 391 1925 391 
Q 2381 391 2643 752 
Q 2906 1113 2906 1747 
Q 2906 2381 2643 2742 
Q 2381 3103 1925 3103 
Q 1469 3103 1208 2742 
Q 947 2381 947 1747 
z
M 2906 525 
Q 2725 213 2448 61 
Q 2172 -91 1784 -91 
Q 1150 -91 751 415 
Q 353 922 353 1747 
Q 353 2572 751 3078 
Q 1150 3584 1784 3584 
Q 2172 3584 2448 3432 
Q 2725 3281 2906 2969 
L 2906 3500 
L 3481 3500 
L 3481 -1331 
L 2906 -1331 
L 2906 525 
z
" transform="scale(0.015625)"/>
       <path id="DejaVuSans-75" d="M 544 1381 
L 544 3500 
L 1119 3500 
L 1119 1403 
Q 1119 906 1312 657 
Q 1506 409 1894 409 
Q 2359 409 2629 706 
Q 2900 1003 2900 1516 
L 2900 3500 
L 3475 3500 
L 3475 0 
L 2900 0 
L 2900 538 
Q 2691 219 2414 64 
Q 2138 -91 1772 -91 
Q 1169 -91 856 284 
Q 544 659 544 1381 
z
M 1991 3584 
L 1991 3584 
z
" transform="scale(0.015625)"/>
       <path id="DejaVuSans-6e" d="M 3513 2113 
L 3513 0 
L 2938 0 
L 2938 2094 
Q 2938 2591 2744 2837 
Q 2550 3084 2163 3084 
Q 1697 3084 1428 2787 
Q 1159 2491 1159 1978 
L 1159 0 
L 581 0 
L 581 3500 
L 1159 3500 
L 1159 2956 
Q 1366 3272 1645 3428 
Q 1925 3584 2291 3584 
Q 2894 3584 3203 3211 
Q 3513 2838 3513 2113 
z
" transform="scale(0.015625)"/>
       <path id="DejaVuSans-63" d="M 3122 3366 
L 3122 2828 
Q 2878 2963 2633 3030 
Q 2388 3097 2138 3097 
Q 1578 3097 1268 2742 
Q 959 2388 959 1747 
Q 959 1106 1268 751 
Q 1578 397 2138 397 
Q 2388 397 2633 464 
Q 2878 531 3122 666 
L 3122 134 
Q 2881 22 2623 -34 
Q 2366 -91 2075 -91 
Q 1284 -91 818 406 
Q 353 903 353 1747 
Q 353 2603 823 3093 
Q 1294 3584 2113 3584 
Q 2378 3584 2631 3529 
Q 2884 3475 3122 3366 
z
" transform="scale(0.015625)"/>
       <path id="DejaVuSans-79" d="M 2059 -325 
Q 1816 -950 1584 -1140 
Q 1353 -1331 966 -1331 
L 506 -1331 
L 506 -850 
L 844 -850 
Q 1081 -850 1212 -737 
Q 1344 -625 1503 -206 
L 1606 56 
L 191 3500 
L 800 3500 
L 1894 763 
L 2988 3500 
L 3597 3500 
L 2059 -325 
z
" transform="scale(0.015625)"/>
       <path id="DejaVuSans-74" d="M 1172 4494 
L 1172 3500 
L 2356 3500 
L 2356 3053 
L 1172 3053 
L 1172 1153 
Q 1172 725 1289 603 
Q 1406 481 1766 481 
L 2356 481 
L 2356 0 
L 1766 0 
Q 1100 0 847 248 
Q 594 497 594 1153 
L 594 3053 
L 172 3053 
L 172 3500 
L 594 3500 
L 594 4494 
L 1172 4494 
z
" transform="scale(0.015625)"/>
       <path id="DejaVuSans-6f" d="M 1959 3097 
Q 1497 3097 1228 2736 
Q 959 2375 959 1747 
Q 959 1119 1226 758 
Q 1494 397 1959 397 
Q 2419 397 2687 759 
Q 2956 1122 2956 1747 
Q 2956 2369 2687 2733 
Q 2419 3097 1959 3097 
z
M 1959 3584 
Q 2709 3584 3137 3096 
Q 3566 2609 3566 1747 
Q 3566 888 3137 398 
Q 2709 -91 1959 -91 
Q 1206 -91 779 398 
Q 353 888 353 1747 
Q 353 2609 779 3096 
Q 1206 3584 1959 3584 
z
" transform="scale(0.015625)"/>
       <path id="DejaVuSans-61" d="M 2194 1759 
Q 1497 1759 1228 1600 
Q 959 1441 959 1056 
Q 959 750 1161 570 
Q 1363 391 1709 391 
Q 2188 391 2477 730 
Q 2766 1069 2766 1631 
L 2766 1759 
L 2194 1759 
z
M 3341 1997 
L 3341 0 
L 2766 0 
L 2766 531 
Q 2569 213 2275 61 
Q 1981 -91 1556 -91 
Q 1019 -91 701 211 
Q 384 513 384 1019 
Q 384 1609 779 1909 
Q 1175 2209 1959 2209 
L 2766 2209 
L 2766 2266 
Q 2766 2663 2505 2880 
Q 2244 3097 1772 3097 
Q 1472 3097 1187 3025 
Q 903 2953 641 2809 
L 641 3341 
Q 956 3463 1253 3523 
Q 1550 3584 1831 3584 
Q 2591 3584 2966 3190 
Q 3341 2797 3341 1997 
z
" transform="scale(0.015625)"/>
       <path id="DejaVuSans-6c" d="M 603 4863 
L 1178 4863 
L 1178 0 
L 603 0 
L 603 4863 
z
" transform="scale(0.015625)"/>
       <path id="DejaVuSans-3d" d="M 678 2906 
L 4684 2906 
L 4684 2381 
L 678 2381 
L 678 2906 
z
M 678 1631 
L 4684 1631 
L 4684 1100 
L 678 1100 
L 678 1631 
z
" transform="scale(0.015625)"/>
       <path id="DejaVuSans-39" d="M 703 97 
L 703 672 
Q 941 559 1184 500 
Q 1428 441 1663 441 
Q 2288 441 2617 861 
Q 2947 1281 2994 2138 
Q 2813 1869 2534 1725 
Q 2256 1581 1919 1581 
Q 1219 1581 811 2004 
Q 403 2428 403 3163 
Q 403 3881 828 4315 
Q 1253 4750 1959 4750 
Q 2769 4750 3195 4129 
Q 3622 3509 3622 2328 
Q 3622 1225 3098 567 
Q 2575 -91 1691 -91 
Q 1453 -91 1209 -44 
Q 966 3 703 97 
z
M 1959 2075 
Q 2384 2075 2632 2365 
Q 2881 2656 2881 3163 
Q 2881 3666 2632 3958 
Q 2384 4250 1959 4250 
Q 1534 4250 1286 3958 
Q 1038 3666 1038 3163 
Q 1038 2656 1286 2365 
Q 1534 2075 1959 2075 
z
" transform="scale(0.015625)"/>
      </defs>
      <use xlink:href="#DejaVuSans-46"/>
      <use xlink:href="#DejaVuSans-72" x="50.269531"/>
      <use xlink:href="#DejaVuSans-65" x="89.132812"/>
      <use xlink:href="#DejaVuSans-71" x="150.65625"/>
      <use xlink:href="#DejaVuSans-75" x="214.132812"/>
      <use xlink:href="#DejaVuSans-65" x="277.511719"/>
      <use xlink:href="#DejaVuSans-6e" x="339.035156"/>
      <use xlink:href="#DejaVuSans-63" x="402.414062"/>
      <use xlink:href="#DejaVuSans-79" x="457.394531"/>
      <use xlink:href="#DejaVuSans-20" x="516.574219"/>
      <use xlink:href="#DejaVuSans-28" x="548.361328"/>
      <use xlink:href="#DejaVuSans-74" x="587.375"/>
      <use xlink:href="#DejaVuSans-6f" x="626.583984"/>
      <use xlink:href="#DejaVuSans-74" x="687.765625"/>
      <use xlink:href="#DejaVuSans-61" x="726.974609"/>
      <use xlink:href="#DejaVuSans-6c" x="788.253906"/>
      <use xlink:href="#DejaVuSans-3d" x="816.037109"/>
      <use xlink:href="#DejaVuSans-39" x="899.826172"/>
      <use xlink:href="#DejaVuSans-35" x="963.449219"/>
      <use xlink:href="#DejaVuSans-30" x="1027.072266"/>
      <use xlink:href="#DejaVuSans-30" x="1090.695312"/>
      <use xlink:href="#DejaVuSans-30" x="1154.318359"/>
      <use xlink:href="#DejaVuSans-29" x="1217.941406"/>
     </g>
    </g>
   </g>
   <g id="patch_3">
    <path d="M 80.031392 246.84375 
L 80.031392 215.909982 
L 84.698719 215.909982 
L 84.698719 214.795252 
L 89.366045 214.795252 
L 89.366045 210.522119 
L 94.033372 210.522119 
L 94.033372 212.472897 
L 98.700699 212.472897 
L 98.700699 209.314494 
L 103.368025 209.314494 
L 103.368025 210.98659 
L 108.035352 210.98659 
L 108.035352 207.085034 
L 112.702679 207.085034 
L 112.702679 201.325593 
L 117.370005 201.325593 
L 117.370005 196.866672 
L 122.037332 196.866672 
L 122.037332 189.063559 
L 126.704659 189.063559 
L 126.704659 175.12943 
L 131.371985 175.12943 
L 131.371985 165.747116 
L 136.039312 165.747116 
L 136.039312 155.157177 
L 140.706639 155.157177 
L 140.706639 151.720092 
L 145.373966 151.720092 
L 145.373966 139.550952 
L 150.041292 139.550952 
L 150.041292 134.163089 
L 154.708619 134.163089 
L 154.708619 130.818897 
L 159.375946 130.818897 
L 159.375946 121.622372 
L 164.043272 121.622372 
L 164.043272 120.414747 
L 168.710599 120.414747 
L 168.710599 115.305566 
L 173.377926 115.305566 
L 173.377926 112.518741 
L 178.045252 112.518741 
L 178.045252 109.917703 
L 182.712579 109.917703 
L 182.712579 108.152713 
L 187.379906 108.152713 
L 187.379906 113.354788 
L 192.047232 113.354788 
L 192.047232 110.939539 
L 196.714559 110.939539 
L 196.714559 110.567962 
L 201.381886 110.567962 
L 201.381886 94.218584 
L 206.049212 94.218584 
L 206.049212 92.3607 
L 210.716539 92.3607 
L 210.716539 90.502816 
L 215.383866 90.502816 
L 215.383866 84.278905 
L 220.051192 84.278905 
L 220.051192 82.978386 
L 224.718519 82.978386 
L 224.718519 74.339225 
L 229.385846 74.339225 
L 229.385846 66.90769 
L 234.053172 66.90769 
L 234.053172 54.924338 
L 238.720499 54.924338 
L 238.720499 60.49799 
L 243.387826 60.49799 
L 243.387826 44.798871 
L 248.055152 44.798871 
L 248.055152 37.367335 
L 252.722479 37.367335 
L 252.722479 36.438393 
L 257.389806 36.438393 
L 257.389806 43.033881 
L 262.057132 43.033881 
L 262.057132 60.962461 
L 266.724459 60.962461 
L 266.724459 70.344775 
L 271.391786 70.344775 
L 271.391786 72.574236 
L 276.059112 72.574236 
L 276.059112 90.131239 
L 280.726439 90.131239 
L 280.726439 91.524652 
L 285.393766 91.524652 
L 285.393766 105.272993 
L 290.061092 105.272993 
L 290.061092 114.005048 
L 294.728419 114.005048 
L 294.728419 122.829996 
L 299.395746 122.829996 
L 299.395746 129.33259 
L 304.063072 129.33259 
L 304.063072 133.234147 
L 308.730399 133.234147 
L 308.730399 135.370713 
L 313.397726 135.370713 
L 313.397726 132.583887 
L 318.065053 132.583887 
L 318.065053 143.731191 
L 322.732379 143.731191 
L 322.732379 140.294106 
L 327.399706 140.294106 
L 327.399706 146.239334 
L 332.067033 146.239334 
L 332.067033 150.233785 
L 336.734359 150.233785 
L 336.734359 145.310392 
L 341.401686 145.310392 
L 341.401686 141.594624 
L 346.069013 141.594624 
L 346.069013 143.26672 
L 350.736339 143.26672 
L 350.736339 139.179375 
L 355.403666 139.179375 
L 355.403666 141.780413 
L 360.070993 141.780413 
L 360.070993 143.359614 
L 364.738319 143.359614 
L 364.738319 150.326679 
L 369.405646 150.326679 
L 369.405646 157.66532 
L 374.072973 157.66532 
L 374.072973 163.331867 
L 378.740299 163.331867 
L 378.740299 174.200488 
L 383.407626 174.200488 
L 383.407626 176.894419 
L 388.074953 176.894419 
L 388.074953 187.298569 
L 392.742279 187.298569 
L 392.742279 189.435136 
L 397.409606 189.435136 
L 397.409606 194.079846 
L 406.744259 194.17274 
L 406.744259 197.981402 
L 411.411586 197.981402 
L 411.411586 198.910344 
L 416.078913 198.910344 
L 416.078913 204.57689 
L 420.746239 204.57689 
L 420.746239 203.183477 
L 425.413566 203.183477 
L 425.413566 199.374815 
L 430.080893 199.374815 
L 430.080893 200.025075 
L 434.748219 200.025075 
L 434.748219 203.833737 
L 439.415546 203.833737 
L 439.415546 205.598726 
L 448.750199 205.598726 
L 448.750199 208.10687 
L 453.417526 208.10687 
L 453.417526 208.292658 
L 458.084853 208.292658 
L 458.084853 208.942917 
L 462.752179 208.942917 
L 462.752179 211.636849 
L 467.419506 211.636849 
L 467.419506 214.237887 
L 472.086833 214.237887 
L 472.086833 217.489184 
L 476.754159 217.489184 
L 476.754159 218.139443 
L 481.421486 218.139443 
L 481.421486 222.226788 
L 486.088813 222.226788 
L 486.088813 225.756767 
L 490.75614 225.756767 
L 490.75614 222.877047 
L 495.423466 222.877047 
L 495.423466 225.570979 
L 500.090793 225.570979 
L 500.090793 226.778603 
L 504.75812 226.778603 
L 504.75812 225.013614 
L 509.425446 225.013614 
L 509.425446 228.91517 
L 514.092773 228.91517 
L 514.092773 228.357805 
L 518.7601 228.357805 
L 518.7601 232.352255 
L 523.427426 232.352255 
L 523.427426 241.641675 
L 528.094753 241.641675 
L 528.094753 246.84375 
L 542.096733 246.84375 
L 542.096733 246.84375 
" clip-path="url(#p902b0d9a81)" style="fill: none; stroke: #1f77b4; stroke-width: 2; stroke-linejoin: miter"/>
   </g>
   <g id="line2d_25">
    <path d="M 268.414176 246.84375 
L 268.414176 25.918125 
" clip-path="url(#p902b0d9a81)" style="fill: none; stroke-dasharray: 2,3.3; stroke-dashoffset: 0; stroke: #1f77b4; stroke-width: 2"/>
   </g>
   <g id="patch_4">
    <path d="M 80.031392 246.84375 
L 89.366045 246.84375 
L 89.366045 218.418126 
L 94.033372 218.418126 
L 94.033372 213.680522 
L 98.700699 213.680522 
L 98.700699 211.265272 
L 103.368025 211.265272 
L 103.368025 210.98659 
L 108.035352 210.98659 
L 108.035352 207.921081 
L 117.370005 208.013975 
L 117.370005 208.292658 
L 122.037332 208.292658 
L 122.037332 202.347429 
L 126.704659 202.347429 
L 126.704659 195.194576 
L 131.371985 195.194576 
L 131.371985 186.090945 
L 136.039312 186.090945 
L 136.039312 175.779689 
L 140.706639 175.779689 
L 140.706639 163.331867 
L 145.373966 163.331867 
L 145.373966 155.900331 
L 150.041292 155.900331 
L 150.041292 151.162727 
L 154.708619 151.162727 
L 154.708619 140.294106 
L 159.375946 140.294106 
L 159.375946 128.124966 
L 164.043272 128.124966 
L 164.043272 124.130515 
L 168.710599 124.130515 
L 168.710599 122.272631 
L 173.377926 122.272631 
L 173.377926 114.93399 
L 178.045252 114.93399 
L 178.045252 110.939539 
L 182.712579 110.939539 
L 182.712579 107.037983 
L 187.379906 107.037983 
L 187.379906 101.928802 
L 192.047232 101.928802 
L 192.047232 111.682693 
L 196.714559 111.682693 
L 196.714559 111.868481 
L 201.381886 111.868481 
L 201.381886 111.40401 
L 206.049212 111.40401 
L 206.049212 107.316665 
L 210.716539 107.316665 
L 210.716539 100.628283 
L 215.383866 100.628283 
L 215.383866 100.256706 
L 220.051192 100.256706 
L 220.051192 86.694154 
L 224.718519 86.694154 
L 224.718519 86.322577 
L 229.385846 86.322577 
L 229.385846 86.972836 
L 234.053172 86.972836 
L 234.053172 80.470242 
L 238.720499 80.470242 
L 238.720499 75.54685 
L 243.387826 75.54685 
L 243.387826 70.530563 
L 248.055152 70.530563 
L 248.055152 73.503178 
L 252.722479 73.503178 
L 252.722479 47.585697 
L 257.389806 47.585697 
L 257.389806 54.924338 
L 262.057132 54.924338 
L 262.057132 51.85883 
L 266.724459 51.85883 
L 266.724459 50.744099 
L 271.391786 50.744099 
L 271.391786 61.61272 
L 276.059112 61.61272 
L 276.059112 76.011321 
L 280.726439 76.011321 
L 280.726439 73.78186 
L 285.393766 73.78186 
L 285.393766 91.989123 
L 290.061092 91.989123 
L 290.061092 102.579061 
L 294.728419 102.579061 
L 294.728419 108.988761 
L 299.395746 108.988761 
L 299.395746 117.627921 
L 304.063072 117.627921 
L 304.063072 117.906604 
L 308.730399 117.906604 
L 308.730399 128.775225 
L 313.397726 128.775225 
L 313.397726 130.075744 
L 318.065053 130.075744 
L 318.065053 136.85702 
L 322.732379 136.85702 
L 322.732379 144.845921 
L 327.399706 144.845921 
L 327.399706 147.168276 
L 332.067033 147.168276 
L 332.067033 151.627198 
L 336.734359 151.627198 
L 336.734359 143.080931 
L 341.401686 143.080931 
L 341.401686 150.512467 
L 346.069013 150.512467 
L 346.069013 151.812986 
L 350.736339 151.812986 
L 350.736339 147.539853 
L 355.403666 147.539853 
L 355.403666 142.895143 
L 360.070993 142.895143 
L 360.070993 143.824085 
L 364.738319 143.824085 
L 364.738319 136.020972 
L 369.405646 136.020972 
L 369.405646 138.529116 
L 374.072973 138.529116 
L 374.072973 142.059095 
L 378.740299 142.059095 
L 378.740299 147.632747 
L 383.407626 147.632747 
L 383.407626 154.135341 
L 388.074953 154.135341 
L 388.074953 162.867396 
L 392.742279 162.867396 
L 392.742279 172.249709 
L 397.409606 172.249709 
L 397.409606 183.211225 
L 402.076933 183.211225 
L 402.076933 188.227511 
L 406.744259 188.227511 
L 406.744259 191.664597 
L 411.411586 191.664597 
L 411.411586 199.096133 
L 416.078913 199.096133 
L 416.078913 197.981402 
L 425.413566 197.981402 
L 425.413566 201.975853 
L 430.080893 201.975853 
L 430.080893 201.604276 
L 434.748219 201.604276 
L 434.748219 203.276371 
L 439.415546 203.276371 
L 439.415546 201.882958 
L 444.082873 201.882958 
L 444.082873 204.391102 
L 448.750199 204.391102 
L 448.750199 203.090583 
L 453.417526 203.090583 
L 453.417526 203.647948 
L 458.084853 203.647948 
L 458.084853 205.134255 
L 462.752179 205.134255 
L 462.752179 207.085034 
L 467.419506 207.085034 
L 467.419506 208.942917 
L 472.086833 208.942917 
L 472.086833 207.177928 
L 476.754159 207.177928 
L 476.754159 214.888146 
L 481.421486 214.888146 
L 481.421486 212.75158 
L 486.088813 212.75158 
L 486.088813 217.86076 
L 490.75614 217.86076 
L 490.75614 218.975491 
L 495.423466 218.975491 
L 495.423466 220.090221 
L 500.090793 220.090221 
L 500.090793 223.15573 
L 504.75812 223.15573 
L 504.75812 225.849661 
L 509.425446 225.849661 
L 509.425446 225.478085 
L 514.092773 225.478085 
L 514.092773 227.614651 
L 518.7601 227.614651 
L 518.7601 227.243074 
L 523.427426 227.243074 
L 523.427426 226.314132 
L 528.094753 226.314132 
L 528.094753 230.865948 
L 532.76208 230.865948 
L 532.76208 232.445149 
L 537.429406 232.445149 
L 537.429406 231.980678 
L 542.096733 231.980678 
L 542.096733 246.84375 
L 542.096733 246.84375 
" clip-path="url(#p902b0d9a81)" style="fill: none; stroke: #ff7f0e; stroke-width: 2; stroke-linejoin: miter"/>
   </g>
   <g id="line2d_26">
    <path d="M 279.70067 246.84375 
L 279.70067 25.918125 
" clip-path="url(#p902b0d9a81)" style="fill: none; stroke-dasharray: 2,3.3; stroke-dashoffset: 0; stroke: #ff7f0e; stroke-width: 2"/>
   </g>
   <g id="patch_5">
    <path d="M 56.928125 246.84375 
L 56.928125 25.918125 
" style="fill: none; stroke: #000000; stroke-width: 0.8; stroke-linejoin: miter; stroke-linecap: square"/>
   </g>
   <g id="patch_6">
    <path d="M 565.2 246.84375 
L 565.2 25.918125 
" style="fill: none; stroke: #000000; stroke-width: 0.8; stroke-linejoin: miter; stroke-linecap: square"/>
   </g>
   <g id="patch_7">
    <path d="M 56.928125 246.84375 
L 565.2 246.84375 
" style="fill: none; stroke: #000000; stroke-width: 0.8; stroke-linejoin: miter; stroke-linecap: square"/>
   </g>
   <g id="patch_8">
    <path d="M 56.928125 25.918125 
L 565.2 25.918125 
" style="fill: none; stroke: #000000; stroke-width: 0.8; stroke-linejoin: miter; stroke-linecap: square"/>
   </g>
   <g id="text_15">
    <!-- Handshake (S) (with ECH) -->
    <g transform="translate(233.594687 19.918125) scale(0.12 -0.12)">
     <defs>
      <path id="DejaVuSans-48" d="M 628 4666 
L 1259 4666 
L 1259 2753 
L 3553 2753 
L 3553 4666 
L 4184 4666 
L 4184 0 
L 3553 0 
L 3553 2222 
L 1259 2222 
L 1259 0 
L 628 0 
L 628 4666 
z
" transform="scale(0.015625)"/>
      <path id="DejaVuSans-64" d="M 2906 2969 
L 2906 4863 
L 3481 4863 
L 3481 0 
L 2906 0 
L 2906 525 
Q 2725 213 2448 61 
Q 2172 -91 1784 -91 
Q 1150 -91 751 415 
Q 353 922 353 1747 
Q 353 2572 751 3078 
Q 1150 3584 1784 3584 
Q 2172 3584 2448 3432 
Q 2725 3281 2906 2969 
z
M 947 1747 
Q 947 1113 1208 752 
Q 1469 391 1925 391 
Q 2381 391 2643 752 
Q 2906 1113 2906 1747 
Q 2906 2381 2643 2742 
Q 2381 3103 1925 3103 
Q 1469 3103 1208 2742 
Q 947 2381 947 1747 
z
" transform="scale(0.015625)"/>
      <path id="DejaVuSans-68" d="M 3513 2113 
L 3513 0 
L 2938 0 
L 2938 2094 
Q 2938 2591 2744 2837 
Q 2550 3084 2163 3084 
Q 1697 3084 1428 2787 
Q 1159 2491 1159 1978 
L 1159 0 
L 581 0 
L 581 4863 
L 1159 4863 
L 1159 2956 
Q 1366 3272 1645 3428 
Q 1925 3584 2291 3584 
Q 2894 3584 3203 3211 
Q 3513 2838 3513 2113 
z
" transform="scale(0.015625)"/>
      <path id="DejaVuSans-6b" d="M 581 4863 
L 1159 4863 
L 1159 1991 
L 2875 3500 
L 3609 3500 
L 1753 1863 
L 3688 0 
L 2938 0 
L 1159 1709 
L 1159 0 
L 581 0 
L 581 4863 
z
" transform="scale(0.015625)"/>
      <path id="DejaVuSans-53" d="M 3425 4513 
L 3425 3897 
Q 3066 4069 2747 4153 
Q 2428 4238 2131 4238 
Q 1616 4238 1336 4038 
Q 1056 3838 1056 3469 
Q 1056 3159 1242 3001 
Q 1428 2844 1947 2747 
L 2328 2669 
Q 3034 2534 3370 2195 
Q 3706 1856 3706 1288 
Q 3706 609 3251 259 
Q 2797 -91 1919 -91 
Q 1588 -91 1214 -16 
Q 841 59 441 206 
L 441 856 
Q 825 641 1194 531 
Q 1563 422 1919 422 
Q 2459 422 2753 634 
Q 3047 847 3047 1241 
Q 3047 1584 2836 1778 
Q 2625 1972 2144 2069 
L 1759 2144 
Q 1053 2284 737 2584 
Q 422 2884 422 3419 
Q 422 4038 858 4394 
Q 1294 4750 2059 4750 
Q 2388 4750 2728 4690 
Q 3069 4631 3425 4513 
z
" transform="scale(0.015625)"/>
      <path id="DejaVuSans-77" d="M 269 3500 
L 844 3500 
L 1563 769 
L 2278 3500 
L 2956 3500 
L 3675 769 
L 4391 3500 
L 4966 3500 
L 4050 0 
L 3372 0 
L 2619 2869 
L 1863 0 
L 1184 0 
L 269 3500 
z
" transform="scale(0.015625)"/>
      <path id="DejaVuSans-45" d="M 628 4666 
L 3578 4666 
L 3578 4134 
L 1259 4134 
L 1259 2753 
L 3481 2753 
L 3481 2222 
L 1259 2222 
L 1259 531 
L 3634 531 
L 3634 0 
L 628 0 
L 628 4666 
z
" transform="scale(0.015625)"/>
      <path id="DejaVuSans-43" d="M 4122 4306 
L 4122 3641 
Q 3803 3938 3442 4084 
Q 3081 4231 2675 4231 
Q 1875 4231 1450 3742 
Q 1025 3253 1025 2328 
Q 1025 1406 1450 917 
Q 1875 428 2675 428 
Q 3081 428 3442 575 
Q 3803 722 4122 1019 
L 4122 359 
Q 3791 134 3420 21 
Q 3050 -91 2638 -91 
Q 1578 -91 968 557 
Q 359 1206 359 2328 
Q 359 3453 968 4101 
Q 1578 4750 2638 4750 
Q 3056 4750 3426 4639 
Q 3797 4528 4122 4306 
z
" transform="scale(0.015625)"/>
     </defs>
     <use xlink:href="#DejaVuSans-48"/>
     <use xlink:href="#DejaVuSans-61" x="75.195312"/>
     <use xlink:href="#DejaVuSans-6e" x="136.474609"/>
     <use xlink:href="#DejaVuSans-64" x="199.853516"/>
     <use xlink:href="#DejaVuSans-73" x="263.330078"/>
     <use xlink:href="#DejaVuSans-68" x="315.429688"/>
     <use xlink:href="#DejaVuSans-61" x="378.808594"/>
     <use xlink:href="#DejaVuSans-6b" x="440.087891"/>
     <use xlink:href="#DejaVuSans-65" x="494.373047"/>
     <use xlink:href="#DejaVuSans-20" x="555.896484"/>
     <use xlink:href="#DejaVuSans-28" x="587.683594"/>
     <use xlink:href="#DejaVuSans-53" x="626.697266"/>
     <use xlink:href="#DejaVuSans-29" x="690.173828"/>
     <use xlink:href="#DejaVuSans-20" x="729.1875"/>
     <use xlink:href="#DejaVuSans-28" x="760.974609"/>
     <use xlink:href="#DejaVuSans-77" x="799.988281"/>
     <use xlink:href="#DejaVuSans-69" x="881.775391"/>
     <use xlink:href="#DejaVuSans-74" x="909.558594"/>
     <use xlink:href="#DejaVuSans-68" x="948.767578"/>
     <use xlink:href="#DejaVuSans-20" x="1012.146484"/>
     <use xlink:href="#DejaVuSans-45" x="1043.933594"/>
     <use xlink:href="#DejaVuSans-43" x="1107.117188"/>
     <use xlink:href="#DejaVuSans-48" x="1176.941406"/>
     <use xlink:href="#DejaVuSans-29" x="1252.136719"/>
    </g>
   </g>
   <g id="legend_1">
    <g id="patch_9">
     <path d="M 436.342187 92.630625 
L 558.2 92.630625 
Q 560.2 92.630625 560.2 90.630625 
L 560.2 32.918125 
Q 560.2 30.918125 558.2 30.918125 
L 436.342187 30.918125 
Q 434.342187 30.918125 434.342187 32.918125 
L 434.342187 90.630625 
Q 434.342187 92.630625 436.342187 92.630625 
z
" style="fill: #ffffff; opacity: 0.8; stroke: #cccccc; stroke-linejoin: miter"/>
    </g>
    <g id="patch_10">
     <path d="M 438.342187 42.516562 
L 458.342187 42.516562 
L 458.342187 35.516562 
L 438.342187 35.516562 
L 438.342187 42.516562 
z
" style="fill: none; stroke: #1f77b4; stroke-width: 2; stroke-linejoin: miter"/>
    </g>
    <g id="text_16">
     <!-- TLS with ECH -->
     <g transform="translate(466.342187 42.516562) scale(0.1 -0.1)">
      <defs>
       <path id="DejaVuSans-4c" d="M 628 4666 
L 1259 4666 
L 1259 531 
L 3531 531 
L 3531 0 
L 628 0 
L 628 4666 
z
" transform="scale(0.015625)"/>
      </defs>
      <use xlink:href="#DejaVuSans-54"/>
      <use xlink:href="#DejaVuSans-4c" x="61.083984"/>
      <use xlink:href="#DejaVuSans-53" x="116.796875"/>
      <use xlink:href="#DejaVuSans-20" x="180.273438"/>
      <use xlink:href="#DejaVuSans-77" x="212.060547"/>
      <use xlink:href="#DejaVuSans-69" x="293.847656"/>
      <use xlink:href="#DejaVuSans-74" x="321.630859"/>
      <use xlink:href="#DejaVuSans-68" x="360.839844"/>
      <use xlink:href="#DejaVuSans-20" x="424.21875"/>
      <use xlink:href="#DejaVuSans-45" x="456.005859"/>
      <use xlink:href="#DejaVuSans-43" x="519.189453"/>
      <use xlink:href="#DejaVuSans-48" x="589.013672"/>
     </g>
    </g>
    <g id="line2d_27">
     <path d="M 438.342187 53.694687 
L 448.342187 53.694687 
L 458.342187 53.694687 
" style="fill: none; stroke-dasharray: 2,3.3; stroke-dashoffset: 0; stroke: #1f77b4; stroke-width: 2"/>
    </g>
    <g id="text_17">
     <!-- mean=5.3357 ms -->
     <g transform="translate(466.342187 57.194687) scale(0.1 -0.1)">
      <use xlink:href="#DejaVuSans-6d"/>
      <use xlink:href="#DejaVuSans-65" x="97.412109"/>
      <use xlink:href="#DejaVuSans-61" x="158.935547"/>
      <use xlink:href="#DejaVuSans-6e" x="220.214844"/>
      <use xlink:href="#DejaVuSans-3d" x="283.59375"/>
      <use xlink:href="#DejaVuSans-35" x="367.382812"/>
      <use xlink:href="#DejaVuSans-2e" x="431.005859"/>
      <use xlink:href="#DejaVuSans-33" x="462.792969"/>
      <use xlink:href="#DejaVuSans-33" x="526.416016"/>
      <use xlink:href="#DejaVuSans-35" x="590.039062"/>
      <use xlink:href="#DejaVuSans-37" x="653.662109"/>
      <use xlink:href="#DejaVuSans-20" x="717.285156"/>
      <use xlink:href="#DejaVuSans-6d" x="749.072266"/>
      <use xlink:href="#DejaVuSans-73" x="846.484375"/>
     </g>
    </g>
    <g id="patch_11">
     <path d="M 438.342187 71.872812 
L 458.342187 71.872812 
L 458.342187 64.872812 
L 438.342187 64.872812 
L 438.342187 71.872812 
z
" style="fill: none; stroke: #ff7f0e; stroke-width: 2; stroke-linejoin: miter"/>
    </g>
    <g id="text_18">
     <!-- TLS with RA,ECH -->
     <g transform="translate(466.342187 71.872812) scale(0.1 -0.1)">
      <defs>
       <path id="DejaVuSans-52" d="M 2841 2188 
Q 3044 2119 3236 1894 
Q 3428 1669 3622 1275 
L 4263 0 
L 3584 0 
L 2988 1197 
Q 2756 1666 2539 1819 
Q 2322 1972 1947 1972 
L 1259 1972 
L 1259 0 
L 628 0 
L 628 4666 
L 2053 4666 
Q 2853 4666 3247 4331 
Q 3641 3997 3641 3322 
Q 3641 2881 3436 2590 
Q 3231 2300 2841 2188 
z
M 1259 4147 
L 1259 2491 
L 2053 2491 
Q 2509 2491 2742 2702 
Q 2975 2913 2975 3322 
Q 2975 3731 2742 3939 
Q 2509 4147 2053 4147 
L 1259 4147 
z
" transform="scale(0.015625)"/>
       <path id="DejaVuSans-41" d="M 2188 4044 
L 1331 1722 
L 3047 1722 
L 2188 4044 
z
M 1831 4666 
L 2547 4666 
L 4325 0 
L 3669 0 
L 3244 1197 
L 1141 1197 
L 716 0 
L 50 0 
L 1831 4666 
z
" transform="scale(0.015625)"/>
       <path id="DejaVuSans-2c" d="M 750 794 
L 1409 794 
L 1409 256 
L 897 -744 
L 494 -744 
L 750 256 
L 750 794 
z
" transform="scale(0.015625)"/>
      </defs>
      <use xlink:href="#DejaVuSans-54"/>
      <use xlink:href="#DejaVuSans-4c" x="61.083984"/>
      <use xlink:href="#DejaVuSans-53" x="116.796875"/>
      <use xlink:href="#DejaVuSans-20" x="180.273438"/>
      <use xlink:href="#DejaVuSans-77" x="212.060547"/>
      <use xlink:href="#DejaVuSans-69" x="293.847656"/>
      <use xlink:href="#DejaVuSans-74" x="321.630859"/>
      <use xlink:href="#DejaVuSans-68" x="360.839844"/>
      <use xlink:href="#DejaVuSans-20" x="424.21875"/>
      <use xlink:href="#DejaVuSans-52" x="456.005859"/>
      <use xlink:href="#DejaVuSans-41" x="521.488281"/>
      <use xlink:href="#DejaVuSans-2c" x="589.896484"/>
      <use xlink:href="#DejaVuSans-45" x="621.683594"/>
      <use xlink:href="#DejaVuSans-43" x="684.867188"/>
      <use xlink:href="#DejaVuSans-48" x="754.691406"/>
     </g>
    </g>
    <g id="line2d_28">
     <path d="M 438.342187 83.050937 
L 448.342187 83.050937 
L 458.342187 83.050937 
" style="fill: none; stroke-dasharray: 2,3.3; stroke-dashoffset: 0; stroke: #ff7f0e; stroke-width: 2"/>
    </g>
    <g id="text_19">
     <!-- mean=5.3515 ms -->
     <g transform="translate(466.342187 86.550937) scale(0.1 -0.1)">
      <use xlink:href="#DejaVuSans-6d"/>
      <use xlink:href="#DejaVuSans-65" x="97.412109"/>
      <use xlink:href="#DejaVuSans-61" x="158.935547"/>
      <use xlink:href="#DejaVuSans-6e" x="220.214844"/>
      <use xlink:href="#DejaVuSans-3d" x="283.59375"/>
      <use xlink:href="#DejaVuSans-35" x="367.382812"/>
      <use xlink:href="#DejaVuSans-2e" x="431.005859"/>
      <use xlink:href="#DejaVuSans-33" x="462.792969"/>
      <use xlink:href="#DejaVuSans-35" x="526.416016"/>
      <use xlink:href="#DejaVuSans-31" x="590.039062"/>
      <use xlink:href="#DejaVuSans-35" x="653.662109"/>
      <use xlink:href="#DejaVuSans-20" x="717.285156"/>
      <use xlink:href="#DejaVuSans-6d" x="749.072266"/>
      <use xlink:href="#DejaVuSans-73" x="846.484375"/>
     </g>
    </g>
   </g>
  </g>
 </g>
 <defs>
  <clipPath id="p902b0d9a81">
   <rect x="56.928125" y="25.918125" width="508.271875" height="220.925625"/>
  </clipPath>
 </defs>
</svg>
